<svg width="177" height="177" viewBox="0 0 177 177" fill="none" xmlns="http://www.w3.org/2000/svg">
<g id="Frame">
<g id="Group">
<path id="Vector" fill-rule="evenodd" clip-rule="evenodd" d="M17.8631 123.853C18.1396 125.726 16.8443 127.466 14.9792 127.74C13.0968 128.015 11.3697 126.718 11.0935 124.844C10.8173 122.974 12.1123 121.231 13.9774 120.956C15.8597 120.685 17.6041 121.98 17.8631 123.853ZM111.176 50.723C120.715 61.3077 127.833 70.4993 132.529 78.7457C141.436 94.3836 139.231 110.147 130.499 121.686L122.713 126.221C120.618 127.441 118.484 128.214 116.278 128.593C117.198 127.37 117.911 125.906 118.369 124.209C120.101 117.789 116.258 111.441 110.09 109.304L109.691 109.165L109.276 109.089C107.852 108.828 106.434 108.535 105.024 108.21C106.283 106.526 107.022 104.452 106.962 101.954C106.955 101.577 106.93 101.199 106.888 100.824C106.389 96.7105 104.163 94.033 101.213 92.2516C98.621 90.6866 95.5128 89.9074 92.6632 89.4397C90.608 89.1022 88.4432 88.5311 86.8578 87.4961C85.6295 86.6941 84.7483 85.5332 84.666 83.8355C84.5768 81.9984 85.3789 80.5167 86.6424 79.4893C87.6322 78.6845 88.895 78.1255 90.264 77.85C90.8207 77.7382 91.3861 77.6747 91.9538 77.6602C92.0882 77.6678 92.2229 77.667 92.3572 77.6577C93.1208 77.6683 93.8805 77.7679 94.6209 77.9547C96.9098 78.5348 98.9937 80.0434 100.091 82.6573C100.407 83.4101 101.009 84.0066 101.765 84.3156C102.52 84.6245 103.368 84.6207 104.12 84.3049C104.873 83.989 105.47 83.387 105.779 82.6314C106.088 81.8758 106.084 81.0283 105.768 80.2754C103.836 75.6731 100.157 73.0139 96.1123 71.9886C95.8156 71.9136 95.5168 71.8475 95.2162 71.7905V69.4044C95.2162 68.5878 94.8918 67.8046 94.3143 67.2271C93.7369 66.6497 92.9537 66.3253 92.137 66.3253C91.3204 66.3253 90.5372 66.6497 89.9597 67.2271C89.3823 67.8046 89.0578 68.5878 89.0578 69.4044V71.8365C86.725 72.307 84.5343 73.2915 82.7695 74.7262C80.0575 76.9311 78.3379 80.1323 78.5319 84.1241C78.7265 88.1346 80.7278 90.8249 83.5141 92.644C85.9431 94.2297 88.9261 95.0501 91.6769 95.5016C93.8863 95.8642 96.245 96.4377 98.0375 97.5198C99.4708 98.3851 100.548 99.65 100.778 101.545C100.808 101.798 100.825 101.981 100.828 102.099C100.863 103.606 100.142 104.754 99.0601 105.575C98.6801 105.861 98.2743 106.11 97.848 106.319C89.8948 103.98 82.5057 100.947 74.6517 98.3996C66.4523 95.7391 58.8112 98.7498 51.7274 102.854L46.9028 105.649C45.3675 97.2318 46.7507 87.9677 52.0026 78.746C56.6993 70.5 63.8177 61.3081 73.356 50.7237C74.5821 51.123 75.8637 51.326 77.1532 51.3252H107.379C108.668 51.3256 109.95 51.1223 111.176 50.723ZM77.1529 45.7936H107.379C111.105 45.7936 114.154 42.7445 114.154 39.0189C114.154 35.2922 111.106 32.2438 107.379 32.2438H77.1529C73.4262 32.2438 70.3778 35.2922 70.3778 39.0185C70.3774 42.7448 73.4262 45.7936 77.1529 45.7936ZM76.9064 26.7153L71.3416 21.1505C68.634 18.443 68.634 14.0121 71.3416 11.3045C73.6447 9.00146 77.2901 8.6122 80.0308 10.3711C81.0486 11.0245 82.2178 11.1286 83.3351 10.6664C84.452 10.2035 85.2046 9.3036 85.4629 8.12164C86.1453 4.99614 88.9434 2.63741 92.2663 2.63672C95.5291 2.63672 98.3745 4.93668 99.0701 8.12164C99.328 9.3036 100.081 10.2035 101.198 10.6664C102.315 11.1293 103.484 11.0245 104.501 10.3711C107.193 8.64331 110.841 8.95479 113.191 11.3038V11.3045C115.898 14.0121 115.898 18.443 113.191 21.1505L107.626 26.7153C107.544 26.7134 107.461 26.7123 107.379 26.7122H77.1532C77.0706 26.7122 76.9883 26.7139 76.9064 26.7153ZM28.9052 122.467L47.356 155.026L54.2984 151.02C54.6322 150.827 55.0009 150.701 55.3833 150.651C55.7657 150.601 56.1542 150.627 56.5265 150.728L100.127 160.331C105.895 161.873 111.318 161.111 116.275 158.065L169.221 125.159C172.105 123.391 172.986 118.199 171 114.875C168.116 110.06 160.483 110.628 150.569 116.398L125.497 131C120.282 134.047 114.652 135.033 108.313 134.018C107.171 133.834 106.031 133.634 104.894 133.417C104.652 133.399 83.5653 127.918 81.1478 127.266C79.5762 126.849 78.6435 125.242 79.0753 123.683C79.4898 122.119 81.096 121.193 82.6502 121.611C85.1199 122.272 100.076 126.512 105.689 127.604C108.555 127.786 111.888 126.989 113.029 122.768C113.961 119.307 111.923 115.793 108.279 114.53C98.0382 112.655 88.1421 109.081 80.1978 106.205C77.4173 105.201 75.0168 104.334 72.9443 103.661C66.416 101.543 60.2162 104.322 54.4996 107.64L28.9052 122.467ZM46.6871 165.786L18.4673 115.922C18.1911 115.435 17.7421 115.086 17.1893 114.932C17.0034 114.882 16.8117 114.857 16.6192 114.856C16.2621 114.855 15.9109 114.947 15.6004 115.124L5.99818 120.555C4.97939 121.131 4.63369 122.42 5.20341 123.431L33.4232 173.295C33.9932 174.309 35.2886 174.664 36.2901 174.093L45.8923 168.66C46.376 168.385 46.7213 167.931 46.8765 167.387C46.9537 167.121 46.9767 166.842 46.9442 166.567C46.9117 166.292 46.8242 166.027 46.6871 165.786Z" fill="white"/>
</g>
</g>
</svg>
