<svg width="177" height="177" viewBox="0 0 177 177" fill="none" xmlns="http://www.w3.org/2000/svg">
<g id="Group">
<path id="Vector" d="M15.5566 72.5977H65.2643L84.4878 91.8208C85.2128 92.5464 86.1368 93.0405 87.1427 93.2406C88.1487 93.4408 89.1915 93.3379 90.139 92.9451C91.0865 92.5526 91.8964 91.888 92.4662 91.0352C93.036 90.1825 93.3402 89.1799 93.3402 88.1543V72.5977H105.44C114.018 72.5977 120.996 65.6189 120.996 57.041V15.5566C120.996 6.97871 114.018 0 105.44 0H15.5566C6.97871 0 0 6.97871 0 15.5566V57.041C0 65.6189 6.97871 72.5977 15.5566 72.5977ZM25.9277 20.7422H95.0684C97.9322 20.7422 100.254 23.0639 100.254 25.9277C100.254 28.7915 97.9322 31.1133 95.0684 31.1133H25.9277C23.0639 31.1133 20.7422 28.7915 20.7422 25.9277C20.7422 23.0639 23.0639 20.7422 25.9277 20.7422ZM25.9277 41.4844H95.0684C97.9322 41.4844 100.254 43.8061 100.254 46.6699C100.254 49.5337 97.9322 51.8555 95.0684 51.8555H25.9277C23.0639 51.8555 20.7422 49.5337 20.7422 46.6699C20.7422 43.8061 23.0639 41.4844 25.9277 41.4844ZM70.8691 117.539H65.1619C64.4975 114.29 63.2124 111.199 61.3772 108.437L65.4233 104.391C67.4484 102.366 67.4484 99.0827 65.4233 97.0575C63.3981 95.0324 60.115 95.0324 58.0899 97.0575L54.0438 101.104C51.2815 99.2682 48.191 97.9831 44.9418 97.3189V91.6113C44.9418 88.7475 42.62 86.4258 39.7562 86.4258C36.8924 86.4258 34.5707 88.7475 34.5707 91.6113V97.3185C31.2654 97.992 28.189 99.2998 25.4686 101.103L21.4225 97.0572C19.3977 95.0324 16.1143 95.0324 14.0891 97.0572C12.0643 99.082 12.0643 102.365 14.0891 104.391L18.1352 108.436C16.2997 111.199 15.0146 114.289 14.3505 117.539H8.64258C5.77877 117.539 3.45703 119.86 3.45703 122.724C3.45703 125.588 5.77877 127.91 8.64258 127.91H14.3498C15.0142 131.159 16.2993 134.25 18.1345 137.012L14.0884 141.058C12.0633 143.083 12.0633 146.366 14.0884 148.391C14.5694 148.874 15.141 149.256 15.7703 149.517C16.3996 149.778 17.0742 149.911 17.7553 149.91C19.0821 149.91 20.4096 149.404 21.4218 148.391L25.4679 144.345C28.2302 146.181 31.3207 147.466 34.57 148.13V153.838C34.57 156.702 36.8917 159.023 39.7555 159.023C42.6193 159.023 44.9411 156.702 44.9411 153.838V148.131C48.2463 147.457 51.3227 146.149 54.0431 144.346L58.0892 148.392C59.1017 149.405 60.4289 149.911 61.7557 149.911C63.0825 149.911 64.41 149.405 65.4226 148.392C67.4474 146.367 67.4474 143.084 65.4226 141.059L61.3765 137.013C63.212 134.251 64.4971 131.16 65.1612 127.911H70.8691C73.7329 127.911 76.0547 125.589 76.0547 122.725C76.0547 119.861 73.7329 117.539 70.8691 117.539ZM39.7559 127.91C36.8921 127.91 34.5703 125.588 34.5703 122.725C34.5703 119.861 36.8921 117.539 39.7559 117.539C42.6197 117.539 44.9414 119.861 44.9414 122.725C44.9414 125.588 42.6197 127.91 39.7559 127.91ZM174.407 137.6L170.154 135.145C170.356 133.53 170.458 131.92 170.458 130.33C170.458 128.74 170.356 127.13 170.154 125.515L174.407 123.06C176.887 121.628 177.736 118.457 176.304 115.977L165.933 98.0134C164.501 95.5333 161.33 94.6832 158.85 96.1155L154.579 98.5811C152.015 96.6321 149.22 95.0066 146.258 93.7412V88.8457C146.258 85.9819 143.937 83.6602 141.073 83.6602H120.331C117.467 83.6602 115.145 85.9819 115.145 88.8457V93.7409C112.183 95.0063 109.388 96.6318 106.824 98.5807L102.554 96.1152C100.074 94.6833 96.9023 95.533 95.4704 98.0131L85.0993 115.976C83.6674 118.457 84.5172 121.628 86.9972 123.06L91.2494 125.515C91.0478 127.13 90.9462 128.74 90.9462 130.33C90.9462 131.92 91.0478 133.53 91.2494 135.144L86.9972 137.6C84.5172 139.031 83.6674 142.203 85.0993 144.683L95.4704 162.646C96.9023 165.127 100.074 165.977 102.554 164.544L106.824 162.079C109.414 164.042 112.195 165.66 115.145 166.919V171.814C115.145 174.678 117.467 177 120.331 177H141.073C143.937 177 146.259 174.678 146.259 171.814V166.919C149.209 165.66 151.99 164.042 154.58 162.079L158.85 164.545C161.33 165.977 164.501 165.127 165.933 162.647L176.304 144.683C177.736 142.203 176.887 139.032 174.407 137.6ZM130.702 145.887C122.124 145.887 115.145 138.908 115.145 130.33C115.145 121.752 122.124 114.773 130.702 114.773C139.28 114.773 146.258 121.752 146.258 130.33C146.258 138.908 139.28 145.887 130.702 145.887Z" fill="white"/>
</g>
</svg>
