<svg width="177" height="177" viewBox="0 0 177 177" fill="none" xmlns="http://www.w3.org/2000/svg">
<g id="Frame">
<g id="Group">
<path id="Vector" d="M175.481 118.505L158.71 101.733L124.017 136.426C117.824 142.619 110.051 146.657 101.608 148.168L123.713 170.273C125.737 172.298 129.022 172.298 131.046 170.273L175.481 125.839C177.506 123.813 177.506 120.529 175.481 118.505ZM151.878 93.8978C157.724 88.0533 157.726 78.5424 151.886 72.6937L151.866 72.6737C150.447 71.2514 148.757 70.129 146.895 69.3733C148.489 65.3424 148.825 58.5255 143.546 53.2455C143.533 53.2317 143.519 53.2168 143.505 53.2034C142.092 51.7954 140.412 50.6836 138.563 49.933C140.157 45.9045 140.494 39.0862 135.219 33.8091L135.209 33.7997C133.763 32.3533 132.073 31.2381 130.233 30.4938C131.827 26.4629 132.163 19.6446 126.884 14.3646C126.882 14.3646 126.882 14.3633 126.881 14.3633L126.877 14.3591C121.029 8.5105 111.513 8.5105 105.665 14.3591L95.8327 24.1902L100.86 29.2178C109.238 37.5955 109.238 51.2266 100.862 59.6044C98.0421 62.4226 94.5782 64.3592 90.8024 65.2815C89.8717 69.0844 87.9134 72.5582 85.1415 75.3232C82.3261 78.1386 78.8677 80.0738 75.0961 80.9975C74.1737 84.7678 72.2371 88.2276 69.4231 91.0419C66.6073 93.8573 63.1489 95.7926 59.3769 96.7163C58.4549 100.487 56.5183 103.946 53.7039 106.762C49.6461 110.819 44.25 113.055 38.5106 113.055C32.7716 113.055 27.3755 110.82 23.3173 106.76L18.2898 101.733L1.51937 118.505C-0.506455 120.531 -0.506455 123.813 1.51937 125.839L45.9526 170.273C47.9784 172.298 51.2612 172.297 53.287 170.273L85.0941 138.467H94.0555C102.604 138.467 110.64 135.136 116.684 129.093L151.878 93.8978Z" fill="white"/>
<path id="Vector_2" d="M30.6513 99.4274C34.9916 103.769 42.0297 103.769 46.37 99.4274C50.7114 95.0871 50.7114 88.0503 46.37 83.7083C50.7114 88.0503 57.7485 88.0503 62.0898 83.7083C66.4301 79.3684 66.4301 72.3302 62.0898 67.9899C66.4301 72.3302 73.4687 72.3302 77.809 67.9899C82.1489 63.6496 82.1489 56.6114 77.809 52.2711C82.1489 56.6114 89.1871 56.6114 93.5274 52.2711C97.8691 47.9298 97.8691 40.8926 93.5274 36.5509L71.3644 14.3883C67.0244 10.048 59.9862 10.048 55.6459 14.3883C51.3056 18.7286 51.3056 25.7667 55.6459 30.107L58.4223 32.8848C54.082 28.5431 47.0438 28.5431 42.7035 32.8848C38.3635 37.2251 38.3635 44.2632 42.7035 48.6035L48.2579 54.1576C43.9176 49.8173 36.8794 49.8173 32.5391 54.1576C28.1975 58.4979 28.1975 65.5361 32.5391 69.8764L38.0932 75.4318C33.7519 71.0905 26.7147 71.0905 22.3734 75.4318C18.0331 79.7721 18.0331 86.8089 22.3734 91.1506L30.6513 99.4274ZM98.3309 7.02444C99.093 6.2655 99.9021 5.55518 100.753 4.89768L97.7204 1.86482C96.9509 1.09533 95.9589 0.587369 94.8848 0.412843C93.8106 0.238318 92.7088 0.406073 91.7353 0.89236L78.9363 7.29202L88.4998 16.8569L98.3309 7.02444Z" fill="white"/>
</g>
</g>
</svg>
