<svg viewBox="0 0 109 18" fill="none" xmlns="http://www.w3.org/2000/svg" class="tw-w-32 lg:tw-w-52 lg:tw-h-10">
            <path d="M20.3794 14.9854V10C20.3794 8.33826 20.0666 7.181 18.1882 7.181C15.9431 7.181 15.9431 7.181 15.9431 10V17.1053C13.4376 17.1053 13.4376 17.1053 13.4376 14.9854V10C13.4436 8.33826 13.1308 7.18699 11.2524 7.18699C8.96393 7.18699 8.96393 7.18699 8.96393 10.006V17.1113C6.50781 17.1113 6.50781 17.1113 6.50781 14.9914V5.26022C8.3817 5.25423 8.3817 5.25423 8.3817 6.79624C8.76786 6.02524 9.82753 5.10901 12.0427 5.10901C13.8013 5.10901 14.7877 5.7842 15.2935 6.93997C15.6543 6.0971 16.7139 5.10901 18.9785 5.10901C22.2054 5.10901 22.8804 7.37413 22.8804 10.1438V17.1053C20.3794 17.1053 20.3794 17.1053 20.3794 14.9854Z" fill="black"></path>
  <path d="M40.6569 14.9854V10C40.6569 8.33826 40.3426 7.181 38.4642 7.181C36.2191 7.181 36.2191 7.181 36.2191 10V17.1053C33.7151 17.1053 33.7151 17.1053 33.7151 14.9854V10C33.7151 8.33826 33.4008 7.181 31.5224 7.181C29.2354 7.181 29.2354 7.181 29.2354 10V17.1053C26.7793 17.1053 26.7793 17.1053 26.7793 14.9854V5.25423C28.6577 5.25423 28.6577 5.25423 28.6577 6.79624C29.0423 6.02524 30.102 5.10901 32.3172 5.10901C34.0758 5.10901 35.0636 5.7842 35.568 6.93997C35.9302 6.0971 36.9899 5.10901 39.2529 5.10901C42.4799 5.10901 43.1549 7.37412 43.1549 10.1438V17.1053C40.6569 17.1053 40.6569 17.1053 40.6569 14.9854Z" fill="black"></path>
  <path d="M55.2974 12.1678H49.1325C49.1325 13.9254 50.2161 15.1306 52.4073 15.1306H55.0086C56.9543 15.1306 56.9543 15.1306 56.9543 17.1307H52.5031C47.8318 17.1307 46.627 14.3117 46.627 11.1558C46.627 7.99991 47.8558 5.10901 52.5525 5.10901C56.1446 5.10901 57.8494 7.32622 57.8494 10.1992C57.8494 12.1678 57.8493 12.1678 55.2974 12.1678ZM55.2974 10.1677C55.3214 10.1677 55.3214 10.1438 55.2974 10.1438C55.3453 8.52989 54.5745 7.01183 52.3354 7.01183C49.2043 7.01183 49.1325 7.01183 49.1325 10.1917H55.2974C55.2974 10.1917 55.3214 10.1917 55.2974 10.1677Z" fill="black"></path>
  <path d="M66.1335 7.30249C64.0381 7.30249 64.0381 7.88037 64.0381 10.5542V17.1055C61.582 17.1055 61.582 17.1055 61.582 15.059V5.25445C63.4604 5.25445 63.4604 5.25445 63.4604 6.88779C63.869 6.06888 65.0978 5.08079 67.6991 5.20206C67.6991 7.37435 67.6991 7.30249 66.1335 7.30249Z" fill="black"></path>
  <path d="M74.9245 17.1307H70.2757C70.2757 15.1305 70.2757 15.1305 72.1541 15.1305H74.8751C77.7189 15.1305 77.7189 15.3237 77.7189 13.8296C77.7189 11.2755 70.2053 13.0106 70.1095 8.77085C70.0602 6.69885 71.6063 5.25415 75.2867 5.25415H79.5014C79.5014 7.22883 79.5014 7.22883 77.7189 7.22883H75.2133C72.5642 7.22883 72.5642 7.07912 72.5642 8.67503C72.5642 10.7949 80.1256 9.32477 80.1256 13.6858C80.1256 15.421 78.6573 17.1307 74.9245 17.1307Z" fill="black"></path>
  <path d="M91.6846 12.1678H85.5196C85.5196 13.9254 86.6033 15.1306 88.7944 15.1306H91.3957C93.3415 15.1306 93.3415 15.1306 93.3415 17.1307H88.8917C84.219 17.1307 83.0156 14.3117 83.0156 11.1558C83.0156 7.99991 84.2429 5.10901 88.9396 5.10901C92.5317 5.10901 94.238 7.32622 94.238 10.1992C94.238 12.1678 94.238 12.1678 91.6846 12.1678ZM91.6846 10.1677C91.7086 10.1677 91.7086 10.1438 91.6846 10.1438C91.7325 8.52989 90.9617 7.01183 88.7226 7.01183C85.5915 7.01183 85.5196 7.01183 85.5196 10.1917H91.6846C91.6846 10.1917 91.7086 10.1917 91.6846 10.1677Z" fill="black"></path>
  <path d="M107.122 15.3957C106.688 16.2146 105.387 17.2506 102.57 17.2506C98.6682 17.2506 97.5127 14.3836 97.5127 11.1559C97.5127 7.90417 98.6203 5.06117 102.545 5.06117C104.881 5.06117 106.062 5.88008 106.568 6.67504V0.749512C109 0.749512 109 0.749512 109 2.8215V17.1054C107.122 17.1054 107.122 17.1054 107.122 15.3957ZM103.292 7.13316C100.041 7.13316 100.041 7.13316 100.041 11.1559C100.041 13.5408 100.57 15.198 103.268 15.198C106.592 15.198 106.592 15.198 106.592 11.1559C106.592 8.8668 106.117 7.13316 103.292 7.13316Z" fill="black"></path>
  <path d="M1.36351 3.54923C0.627125 3.54923 0.0538819 3.48785 0.0538819 3.48785C0.0538819 3.48785 0 2.75876 0 2.23777C0 1.14489 0.528341 0.890381 1.36351 0.890381C2.17024 0.890381 2.71056 0.935294 2.71056 0.935294C2.71056 0.935294 2.72852 1.68385 2.72852 2.24077C2.72702 3.3097 2.14031 3.54923 1.36351 3.54923ZM0.10926 14.7565V5.24096C0.603177 5.24096 1.83947 5.14515 2.27651 5.5808C2.56238 5.87124 2.61926 6.40421 2.61926 7.54051V17.1025C0.279886 17.104 0.10926 16.9827 0.10926 14.7565Z" fill="black"></path>
        </svg>