<svg width="427" height="97" viewBox="0 0 427 97" fill="none" xmlns="http://www.w3.org/2000/svg">
<path d="M53.6926 0.300987C57.1601 -1.03036 61.1137 2.27523 60.7087 5.8896C60.3948 9.33186 56.3097 11.8933 53.1509 10.2279C50.8021 9.18 49.5163 6.42113 50.2047 3.93561C50.7059 2.2651 52.0271 0.857824 53.6926 0.300987Z" fill="#FFB012"/>
<path d="M30.6139 4.5733C33.1247 4.56824 35.6305 4.5733 38.1363 4.56824C38.1363 25.237 38.1312 45.9007 38.1363 66.5695C36.2481 66.4733 34.284 66.8226 32.4464 66.3417C30.8316 64.6762 31.6516 61.9933 30.9531 59.9279C27.6272 63.8713 22.9346 67.02 17.6447 67.2225C12.8204 67.5363 7.71779 65.5773 4.83743 61.5883C1.6584 57.3867 0.742148 51.9955 0.539662 46.8574C0.367549 41.1473 1.3901 35.1538 4.78681 30.4358C8.01646 25.6268 13.8886 22.8325 19.6442 23.1716C23.8256 23.1716 27.7842 25.1864 30.619 28.1882C30.6088 20.3166 30.619 12.4449 30.6139 4.5733ZM13.0381 31.6052C9.03395 35.0981 8.23413 40.793 8.21388 45.8197C8.35562 50.1225 8.77578 54.8759 11.7321 58.2625C14.1923 61.0466 18.2521 61.4719 21.7248 60.9302C25.4151 60.2519 28.3866 57.6449 30.619 54.7595C30.6088 47.8243 30.624 40.8892 30.6088 33.954C28.8725 31.7267 26.5034 29.8841 23.6737 29.3576C20.0441 28.821 15.883 28.9779 13.0381 31.6052Z" fill="#FFB012"/>
<path d="M162.26 4.57342C164.776 4.56836 167.297 4.57342 169.813 4.56836C169.813 25.2371 169.813 45.9059 169.813 66.5696C167.297 66.5696 164.776 66.5696 162.26 66.5696C162.265 45.9059 162.26 25.2371 162.26 4.57342Z" fill="#FFB012"/>
<path d="M359.026 16.737C361.026 15.9726 363.035 15.2184 365.055 14.4844C364.6 15.4361 363.901 16.3523 364.043 17.466C364.109 24.882 363.931 32.3031 364.139 39.7192C365.01 40.1545 365.936 40.1039 366.857 39.8204C366.852 40.0584 366.842 40.5342 366.837 40.7671C364.898 41.5011 363 42.3414 360.995 42.883C360.899 40.762 360.945 38.6359 360.94 36.5098C358.89 38.7169 357.204 41.7592 354.065 42.5186C351.767 43.207 349.297 41.6833 348.38 39.5572C345.384 33.9534 348.887 26.7247 354.334 24.143C356.47 23.3583 358.89 23.6924 360.94 24.5935C360.854 22.3206 361.223 19.9768 360.55 17.7596C359.649 17.8203 358.753 17.8811 357.862 17.9368C358.009 17.2989 358.398 16.899 359.026 16.737ZM350.755 30.0556C349.869 32.9815 350.026 36.5503 352.157 38.9093C353.569 40.5848 356.389 40.2659 357.756 38.6764C360.104 36.1403 361.213 32.5968 361.228 29.1798C361.456 26.2387 357.978 25.4287 355.761 24.9073C353.088 25.2161 351.332 27.6004 350.755 30.0556Z" fill="white"/>
<path d="M284.82 17.5783C285.271 17.2442 285.787 17.0063 286.374 17.0771C288.769 17.0721 291.163 17.0721 293.558 17.0771C294.15 17.0113 294.707 17.2189 295.172 17.5833C294.008 18.1807 292.029 18.2161 291.902 19.8765C291.518 22.4835 291.826 25.1361 291.735 27.7633C295.674 27.7684 299.617 27.7583 303.555 27.7684C303.783 24.802 303.768 21.8102 303.358 18.8641C302.366 18.2971 301.045 18.2009 300.361 17.2037C303.743 16.9809 307.149 17.0569 310.541 17.1531C310.005 18.3123 308.455 18.0946 307.676 18.9906C307.225 19.7651 307.322 20.6966 307.286 21.5521C307.306 27.1306 307.281 32.709 307.296 38.2875C307.215 39.2291 307.63 40.0795 308.071 40.8794C308.8 40.9604 309.539 41.0363 310.278 41.1173C310.278 41.3552 310.273 41.8361 310.268 42.074C307.084 42.074 303.895 42.074 300.71 42.074C300.71 41.8462 300.705 41.3957 300.705 41.1679C301.703 40.9806 303.302 41.0515 303.434 39.7049C303.763 36.1716 303.5 32.6078 303.586 29.0643C299.632 29.0592 295.684 29.0643 291.73 29.0592C291.735 31.7979 291.725 34.5365 291.725 37.2701C291.705 38.323 291.816 39.4569 292.484 40.3225C293.229 41.0869 294.626 40.849 295.091 41.9677C291.796 42.1955 288.485 42.0234 285.19 42.074C285.19 41.8513 285.185 41.4058 285.185 41.1831C286.121 40.9604 287.665 41.0667 287.847 39.8315C288.318 36.6423 287.944 33.3773 288.06 30.1577C287.918 26.3662 288.394 22.5291 287.736 18.7729C286.769 18.3629 285.782 17.9934 284.82 17.5783Z" fill="white"/>
<path d="M233.92 17.7556C235.368 17.4518 237.17 17.4367 238.188 18.7073C240.233 20.5651 239.443 24.4528 236.78 25.2982C234.31 26.3663 231.141 24.2706 231.389 21.537C231.227 19.8817 232.391 18.2972 233.92 17.7556Z" fill="white"/>
<path d="M226.965 22.5135C227.147 22.2858 227.517 21.8352 227.699 21.6074C250.089 38.8592 272.519 56.0655 294.874 73.3578C294.823 73.6565 294.717 74.2589 294.661 74.5626C272.018 57.3158 249.532 39.8615 226.965 22.5135Z" fill="white"/>
<path d="M89.7047 23.6583C95.0048 22.2814 101.196 23.7544 104.825 27.9965C108.278 31.9197 109.376 37.2603 109.837 42.3173C110.298 49.4195 108.754 57.2051 103.555 62.3989C97.3233 68.7519 85.736 69.0607 79.7121 62.247C79.7272 68.5292 79.712 74.8113 79.7171 81.0934C77.2316 81.0934 74.7511 81.0934 72.2656 81.0934C72.2656 62.0344 72.2656 42.9754 72.2656 23.9164C73.9361 23.9417 75.6168 23.8203 77.2873 23.9822C77.9555 24.0177 78.3756 24.6504 78.6642 25.187C78.9477 26.9436 79.0793 28.7255 79.3982 30.482C82.1368 27.3587 85.5639 24.5695 89.7047 23.6583ZM88.3633 29.5202C84.7843 30.315 81.9394 32.8714 79.7222 35.6707C79.7323 42.5958 79.712 49.5157 79.7323 56.4357C83.534 61.8623 91.9321 63.0722 97.1208 59.0174C100.563 56.218 101.687 51.6317 102.072 47.4099C102.228 42.4186 102.097 36.911 99.0444 32.7043C96.6298 29.4342 92.1194 28.8014 88.3633 29.5202Z" fill="#FFB012"/>
<path d="M118.548 29.9048C122.942 25.6728 128.921 23.0506 135.061 23.167C139.642 23.0304 144.451 24.9337 147.139 28.7658C149.387 31.7727 149.913 35.6149 150.192 39.2495C150.197 48.3563 150.171 57.4631 150.171 66.5699C148.359 66.4433 146.37 66.9445 144.684 66.1194C143.753 64.5501 143.667 62.6164 143.251 60.8649C139.44 64.5602 134.443 67.4507 128.981 67.2634C124.618 67.5469 119.758 65.7245 117.738 61.6141C116.625 59.0678 115.85 56.0913 116.878 53.3881C117.713 49.961 120.695 47.5919 123.747 46.1441C129.649 43.3599 136.276 42.8082 142.715 42.7019C142.7 39.0166 143.059 34.8505 140.548 31.8132C138.149 28.9683 133.962 28.9075 130.616 29.682C127.706 30.335 125.483 32.4105 122.871 33.6761C120.416 34.405 119.505 31.5145 118.548 29.9048ZM127.984 49.8952C126.187 50.6748 124.476 52.0719 123.929 54.0158C123.55 56.233 123.752 58.8603 125.585 60.4093C127.473 62.1456 130.232 62.1355 132.631 61.8975C136.61 61.5229 140.108 59.169 142.735 56.2684C142.695 53.3324 142.73 50.4014 142.715 47.4704C137.739 47.5868 132.596 47.8349 127.984 49.8952Z" fill="#FFB012"/>
<path d="M197.103 23.4254C202.221 22.7167 207.708 23.7595 212.046 26.6297C217.64 30.3858 220.364 37.2602 220.51 43.8157C220.779 49.1512 219.817 54.7449 216.734 59.2047C214.142 63.062 209.956 65.7703 205.39 66.6156C200.763 67.8103 195.802 67.213 191.393 65.4716C186.224 63.3252 182.438 58.5567 180.97 53.2161C179.158 46.7518 179.492 39.5281 182.473 33.4535C185.212 27.8649 190.968 24.1088 197.103 23.4254ZM197.078 29.4747C193.104 30.234 189.97 33.4535 188.781 37.24C187.252 42.2414 187.232 47.6933 188.588 52.7352C189.662 56.6381 192.714 60.126 196.789 60.9562C201.051 61.8572 206.169 61.2447 209.161 57.7619C212.259 54.0666 212.902 48.9994 212.745 44.3422C212.73 39.8622 211.631 34.9924 208.27 31.8083C205.263 29.1051 200.884 28.8216 197.078 29.4747Z" fill="#FFB012"/>
<path d="M315.239 26.5838C316.869 24.6652 319.334 23.3997 321.9 23.7692C325.469 23.8198 327.494 27.5962 327.732 30.7651C323.459 30.7955 319.192 30.7449 314.925 30.7955C314.909 33.529 315.421 36.5511 317.562 38.4596C319.152 40.0491 321.698 40.2718 323.718 39.4518C325.459 38.657 326.887 37.3408 328.177 35.9538C328.162 36.4094 328.152 36.8599 328.147 37.3155C326.122 39.7403 323.652 42.1904 320.372 42.6409C317.061 43.0358 314.049 40.4996 312.945 37.5079C311.447 33.8277 312.647 29.4641 315.239 26.5838ZM315.152 29.8235C318.23 29.8387 321.313 29.8489 324.396 29.8134C324.264 27.5608 322.766 25.1006 320.326 24.9335C317.592 24.7158 315.527 27.3279 315.152 29.8235Z" fill="white"/>
<path d="M336.418 23.9972C338.382 23.6023 340.721 23.4555 342.356 24.8425C344.188 26.2194 345.008 28.5379 345.11 30.7653C340.918 30.7956 336.727 30.7551 332.535 30.7906C332.591 32.6484 332.439 34.653 333.452 36.3083C334.494 38.4243 336.661 40.1758 339.141 39.8974C341.951 39.8366 343.945 37.6295 345.839 35.8426C345.702 36.6677 345.55 37.5435 344.912 38.1408C342.994 40.3226 340.589 42.388 337.577 42.6866C334.56 42.8689 331.953 40.7225 330.662 38.1357C328.339 32.9116 331.057 26.0676 336.418 23.9972ZM336.129 25.1716C334.135 25.86 333.057 27.8849 332.55 29.8085C335.684 29.8591 338.822 29.8338 341.961 29.8237C341.561 28.6138 341.44 27.2015 340.463 26.2853C339.42 25.0754 337.623 24.5692 336.129 25.1716Z" fill="white"/>
<path d="M51.6016 23.9109C54.0871 23.9109 56.5777 23.9109 59.0682 23.9109C59.0682 38.1305 59.0632 52.35 59.0682 66.5696C56.5777 66.5696 54.0871 66.5696 51.6016 66.5696C51.6016 52.35 51.6016 38.1305 51.6016 23.9109Z" fill="#FFB012"/>
<path d="M379.553 27.763C392.309 27.763 405.061 27.7579 417.818 27.763C417.818 28.087 417.812 28.7248 417.812 29.0437C405.061 29.0387 392.309 29.0437 379.558 29.0437C379.558 28.7197 379.553 28.0819 379.553 27.763Z" fill="white"/>
<path d="M419.994 47.9102C421.604 47.2572 423.234 46.6497 424.874 46.0625C424.545 46.6598 424.201 47.242 423.846 47.8191C423.755 54.5821 423.841 61.3451 423.801 68.1082C423.821 69.2826 423.725 70.4924 424.054 71.6365C424.616 72.7147 426.043 72.6034 427 73.0843C426.833 73.2513 426.499 73.5804 426.332 73.7474C423.512 73.9448 420.672 73.7575 417.848 73.8284L417.741 72.9324C418.562 72.7097 419.392 72.4819 420.222 72.2541C420.495 71.2366 420.753 70.1988 420.713 69.1358C420.698 63.5775 420.698 58.0142 420.713 52.456C420.738 51.479 420.591 50.5121 420.359 49.5706C419.392 49.5402 418.415 49.5199 417.458 49.4845C417.969 48.4923 419.058 48.2797 419.994 47.9102Z" fill="white"/>
<path d="M379.841 47.6572C380.98 46.3411 383.243 47.7433 382.818 49.348C382.94 50.3908 381.694 50.6692 381.061 51.1703C380.338 50.7552 379.654 50.2845 378.996 49.7833C379.204 49.0544 379.113 48.1179 379.841 47.6572Z" fill="white"/>
<path d="M322.635 48.6646C326.31 47.6521 330.208 48.2748 333.786 49.3885C333.827 51.3779 333.812 53.3673 333.812 55.3567C333.493 55.3466 332.85 55.3365 332.526 55.3314C331.676 49.3581 323.434 47.7483 319.299 51.3374C313.533 56.5362 314.662 67.7894 322.068 70.9077C326.416 72.5579 331.053 70.5432 334.455 67.7843C334.419 68.1083 334.353 68.7613 334.323 69.0904C331.083 71.7632 327.297 74.4157 322.898 74.2892C319.111 74.355 315.618 71.9454 313.761 68.7461C311.756 64.8331 311.852 60.0089 313.72 56.0654C315.512 52.527 318.782 49.7023 322.635 48.6646Z" fill="white"/>
<path d="M389.976 51.4948C391.12 50.5432 392.755 50.3609 394.102 49.7383C392.664 51.753 392.097 54.4866 393.444 56.7038C394.704 57.3113 396.071 57.534 397.468 57.4935L397.483 58.2224C395.899 58.2224 394.32 58.2224 392.74 58.2224C392.755 62.7126 392.705 67.2078 392.771 71.6979C394.395 72.6344 395.777 70.8373 397.109 70.1539C397.033 71.7232 395.534 72.5028 394.411 73.3228C393.181 74.1024 391.318 74.8617 390.103 73.6569C389.799 72.6799 389.809 71.6523 389.809 70.645C389.824 66.5092 389.809 62.3734 389.819 58.2376C388.761 58.2275 387.703 58.2224 386.65 58.2174L386.661 57.6099C387.739 57.2303 389.288 57.1493 389.759 55.9141C390.098 54.4663 389.819 52.9629 389.976 51.4948Z" fill="white"/>
<path d="M338.463 58.2872C341.323 56.4193 344.73 54.8905 348.223 55.4423C349.757 55.5942 350.38 57.1938 350.41 58.5404C350.587 62.9647 350.238 67.4092 350.572 71.8234C351.944 72.3752 353.012 70.725 354.151 70.2187C353.938 71.9095 352.46 72.8916 351.134 73.7015C350.071 74.2634 348.628 74.6481 347.631 73.7622C347.175 72.4562 347.428 71.0337 347.342 69.6821C345.221 71.5653 343.176 74.233 340.078 74.2938C337.942 74.4203 336.423 72.2335 336.469 70.2744C336.676 68.7406 337.669 67.4244 338.792 66.4069C341.318 64.1796 344.366 62.6609 347.398 61.2435C347.403 59.7451 347.464 58.2063 346.755 56.8395C345.545 56.5509 344.199 56.3079 343.06 56.9559C341.055 58.2872 340.017 60.6513 339.724 62.9748C339.41 62.9647 338.782 62.9444 338.468 62.9343C338.468 61.3853 338.473 59.8363 338.463 58.2872ZM340.539 66.5942C339.374 67.8193 339.076 70.1782 340.554 71.2818C342.113 72.1424 344.229 71.6463 345.338 70.2694C347.19 68.2445 347.555 65.3945 347.6 62.7622C345.029 63.5316 342.305 64.4529 340.539 66.5942Z" fill="white"/>
<path d="M355.786 57.0025C357.416 56.3849 359.006 55.6509 360.697 55.1953C360.762 57.3467 360.717 59.4981 360.737 61.6546C362.362 59.6449 363.871 57.4277 366.113 56.0508C368.022 54.9017 370.684 55.0991 372.269 56.7291C374.091 58.2832 374.607 60.7991 374.496 63.0923C374.45 67.3546 371.869 71.3891 368.209 73.4849C365.88 74.7555 363.177 74.2239 360.732 73.6671C360.788 75.5401 360.575 77.4333 360.859 79.2912C361.097 80.7136 362.61 81.1186 363.84 81.2046C363.835 81.4324 363.83 81.8982 363.825 82.131C360.828 82.126 357.837 82.126 354.845 82.131C354.84 81.8982 354.835 81.4375 354.83 81.2046C356.287 81.2097 357.836 80.3745 357.801 78.7343C357.887 72.1535 357.897 65.5575 357.796 58.9767C357.7 57.1847 355.574 58.187 354.485 58.2883C354.85 57.8074 355.123 57.1442 355.786 57.0025ZM364.058 59.1742C361.071 62.2368 360.155 66.7168 360.661 70.8627C362.084 71.9308 363.628 72.9888 365.46 73.1508C367.12 73.1609 368.7 72.2345 369.641 70.8829C371.55 68.2557 372.066 64.7273 371.287 61.5989C370.861 60.1815 370.208 58.6578 368.831 57.9238C367.166 57.2607 365.222 57.858 364.058 59.1742Z" fill="white"/>
<path d="M376.277 57.3973C378.328 56.6481 380.297 55.6661 382.438 55.1953C382.585 60.3131 382.357 65.4411 382.549 70.5589C382.534 72.3155 384.291 72.6901 385.658 72.9685C385.607 73.1862 385.511 73.6215 385.46 73.8342C382.58 73.819 379.694 73.8088 376.814 73.8392C376.708 73.6317 376.49 73.2166 376.379 73.004C377.27 72.6192 378.596 72.7509 379.092 71.7334C379.674 70.8019 379.527 69.6579 379.568 68.61C379.532 65.1981 379.583 61.7862 379.532 58.3743C378.677 57.9542 377.735 57.7061 376.849 58.187C376.657 57.9238 376.46 57.6606 376.277 57.3973Z" fill="white"/>
<path d="M400.976 58.1867C403.943 56.42 407.41 54.7343 410.949 55.519C412.26 55.7822 412.913 57.2249 412.862 58.455C412.898 62.9603 412.827 67.4656 412.898 71.9659C414.371 72.138 415.418 70.9484 416.527 70.184C416.497 70.5029 416.436 71.1357 416.406 71.4496C415.089 72.5733 413.814 73.9452 412.037 74.259C411.217 74.421 409.992 74.1831 409.951 73.1656C409.794 71.9861 409.87 70.7965 409.855 69.612C408.119 71.2572 406.433 73.1454 404.15 74.0211C402.373 74.7551 399.979 74.0616 399.371 72.1076C398.339 70.2093 399.528 68.0326 400.941 66.6962C403.502 64.3018 406.686 62.692 409.87 61.2898C409.805 59.8117 410.179 58.0197 408.974 56.8908C407.876 56.2985 406.474 56.4453 405.406 57.0224C403.426 58.3588 402.581 60.7431 402.09 62.9755C401.806 62.9704 401.239 62.9553 400.956 62.9451C400.951 61.3607 400.946 59.7712 400.976 58.1867ZM404.186 65.4256C402.905 66.438 401.69 67.9162 402.054 69.6727C402.216 71.9153 405.279 72.1532 406.813 71.1306C409.455 69.2627 409.997 65.7698 410.073 62.7578C408.007 63.3805 405.886 64.0487 404.186 65.4256Z" fill="white"/>
<path d="M289.573 60.6566C291.158 56.288 297.521 55.0325 300.67 58.3938C303.418 60.8945 303.393 65.7238 300.68 68.2346C299.455 69.485 297.733 70.0266 296.043 70.2747C291.294 70.3709 287.518 65.0303 289.573 60.6566Z" fill="white"/>
<path d="M157.512 71.0188C158.271 71.0037 159.036 70.9935 159.8 70.9834C159.805 73.1652 159.8 75.3419 159.8 77.5237C161.663 77.5237 163.521 77.5237 165.383 77.5237C165.378 78.3387 165.378 79.1537 165.383 79.9738C163.521 79.9738 161.663 79.9738 159.8 79.9738C159.81 83.7906 159.79 87.6126 159.805 91.4294C159.618 92.6899 160.64 93.8998 161.901 93.9808C162.868 93.8795 163.693 93.3328 164.543 92.9126C164.999 93.6062 165.444 94.2997 165.895 94.9982C163.971 96.4764 161.324 97.2155 159.01 96.279C157.436 95.6158 156.484 93.9453 156.525 92.2697C156.454 88.1542 156.515 84.0336 156.504 79.9181C155.502 79.8979 154.505 79.8776 153.513 79.832C153.492 79.1891 153.472 78.5463 153.457 77.9034C154.49 77.7768 155.527 77.6401 156.56 77.4781C156.773 75.3115 157.203 73.1753 157.512 71.0188Z" fill="white"/>
<path d="M110.854 80.5052C113.375 76.653 119.135 75.6 122.907 78.202C125.534 80.0547 126.572 83.5577 126.111 86.6456C121.55 86.7418 116.989 86.6558 112.433 86.6912C112.787 88.8679 113.051 91.3636 114.979 92.781C117.586 94.74 121.201 93.925 123.747 92.2697C124.79 91.399 125.326 93.1606 125.949 93.7529C122.193 97.2812 115.496 97.8229 111.785 93.9503C108.647 90.3157 108.237 84.5398 110.854 80.5052ZM115.774 79.7611C113.866 80.647 112.929 82.6921 112.625 84.6714C116.179 84.6866 119.733 84.7119 123.286 84.6562C123.099 83.1932 122.775 81.624 121.646 80.5761C120.123 79.0575 117.683 79.0524 115.774 79.7611Z" fill="white"/>
<path d="M135.492 79.7366C137.628 77.6308 140.802 76.0413 143.814 77.0992C146.563 77.7168 148.193 80.5972 148.168 83.2751C148.249 87.6538 148.173 92.0326 148.198 96.4114C147.094 96.4114 145.991 96.4114 144.887 96.4114C144.867 92.2098 144.923 88.0082 144.862 83.8066C144.862 82.1918 144.118 80.4251 142.559 79.7518C140.711 79.2203 138.671 79.5898 137.167 80.7946C136.575 81.3464 135.543 81.7666 135.674 82.7284C135.629 87.2843 135.674 91.8453 135.659 96.4012C134.52 96.4114 133.386 96.4114 132.247 96.4164C132.252 89.9976 132.242 83.5788 132.252 77.1651C133.128 77.1651 134.009 77.1701 134.89 77.1802C135.082 78.0307 135.284 78.8862 135.492 79.7366Z" fill="white"/>
<path d="M200.672 77.1037C201.963 76.4608 203.426 76.7646 204.712 77.2455C204.585 78.2832 204.453 79.321 204.291 80.3587C202.879 80.2777 201.406 79.9942 200.039 80.465C198.556 81.1838 197.726 82.743 197.235 84.2414C197.098 88.3012 197.225 92.3661 197.184 96.426C196.076 96.426 194.967 96.426 193.858 96.426C193.863 89.997 193.843 83.563 193.869 77.1341C194.79 77.21 195.777 77.0329 196.648 77.4328C196.992 78.511 196.931 79.6702 197.032 80.789C197.959 79.3311 198.936 77.6808 200.672 77.1037Z" fill="white"/>
<path d="M214.815 77.1698C218.121 76.132 222.251 77.2609 224.079 80.3387C225.279 82.2016 225.456 84.52 225.258 86.6765C220.738 86.7929 216.217 86.6917 211.702 86.7372C211.737 89.4809 212.821 92.7966 215.752 93.6319C218.526 94.6646 221.325 93.2775 223.699 91.9108C224.18 92.5081 224.661 93.1105 225.137 93.7179C221.517 97.2665 214.977 97.8284 211.221 94.209C208.594 91.6577 208.123 87.7041 208.604 84.2416C209.044 80.9461 211.515 77.9139 214.815 77.1698ZM214.982 79.7413C213.023 80.5867 212.173 82.723 211.697 84.6466C215.266 84.7174 218.84 84.6871 222.413 84.6668C222.145 83.3405 222.074 81.8472 221.077 80.8246C219.609 79.0833 216.987 79.0124 214.982 79.7413Z" fill="white"/>
<path d="M234.765 77.2253C237.737 76.2331 241.037 77.1443 243.452 79.0325C243.011 79.6653 242.541 80.2677 242.065 80.8701C240.222 79.8779 238.132 78.9515 236.005 79.5539C234.229 79.8222 232.705 82.3988 234.446 83.6745C236.82 85.4412 240.151 85.3096 242.399 87.3243C243.913 88.6708 243.963 90.9944 243.31 92.7813C242.272 95.5402 239.088 96.8513 236.309 96.6741C233.991 96.8057 231.855 95.7022 230.007 94.4164C230.599 93.7127 230.994 91.946 232.214 92.7459C234.229 93.9912 236.851 94.9732 239.078 93.6672C240.572 92.9281 241.219 90.5438 239.812 89.42C237.215 87.4306 233.115 87.8558 231.201 84.8894C229.293 81.9635 231.51 77.8885 234.765 77.2253Z" fill="white"/>
<path d="M87.1377 77.1599C88.4437 77.3624 90.6508 76.4917 91.0862 78.309C92.8124 83.1079 95.1308 87.7043 96.4065 92.6551C98.2289 87.4158 100.365 82.2878 102.501 77.17C103.59 77.17 104.683 77.1649 105.777 77.17C103.2 83.5939 100.476 89.9621 97.9859 96.4163C96.9836 96.4112 95.9863 96.4112 94.9942 96.4163C92.3365 90.0127 89.7042 83.5989 87.1377 77.1599Z" fill="white"/>
<path d="M170.627 77.1691C171.741 77.1691 172.855 77.1641 173.968 77.1691C173.999 81.4061 173.923 85.6482 173.999 89.8903C174.024 91.5254 174.864 93.4136 176.621 93.7679C179.046 94.5374 181.415 93.12 183.116 91.495C183.258 86.7214 183.03 81.9427 183.192 77.1641C184.336 77.1641 185.485 77.1691 186.634 77.1691C186.634 83.593 186.654 90.0219 186.624 96.4458C185.723 96.2484 184.417 96.8153 183.83 95.9193C183.647 95.16 183.551 94.3906 183.435 93.6211C181.152 96.0459 177.487 97.6101 174.277 96.1117C171.837 95.1499 170.627 92.4315 170.633 89.9409C170.607 85.6837 170.633 81.4264 170.627 77.1691Z" fill="white"/>
</svg>
