<svg width="36" height="36" viewBox="0 0 36 36" fill="none" xmlns="http://www.w3.org/2000/svg">
<g id="Frame" clipPath="url(#clip0_2486_3494)">
<g id="Group">
<g id="Layer 2">
<path id="Vector" d="M31.0909 0H4.90909C2.19787 0 0 2.19787 0 4.90909V31.0909C0 33.8021 2.19787 36 4.90909 36H31.0909C33.8021 36 36 33.8021 36 31.0909V4.90909C36 2.19787 33.8021 0 31.0909 0Z" fill="#0077B5"/>
<g id="Group_2">
<path id="Vector_2" d="M12.9682 9.81818C12.9682 10.425 12.7882 11.0182 12.4511 11.5228C12.1139 12.0273 11.6347 12.4206 11.0741 12.6528C10.5135 12.885 9.89657 12.9458 9.3014 12.8274C8.70623 12.709 8.15953 12.4168 7.73044 11.9877C7.30135 11.5586 7.00913 11.0119 6.89074 10.4168C6.77236 9.82159 6.83312 9.20468 7.06534 8.64404C7.29756 8.0834 7.69082 7.60422 8.19538 7.26708C8.69994 6.92995 9.29314 6.75 9.89997 6.75C10.7137 6.75 11.4941 7.07325 12.0695 7.64865C12.6449 8.22405 12.9682 9.00445 12.9682 9.81818ZM12.2727 14.9318V28.487C12.2732 28.587 12.254 28.6862 12.2161 28.7787C12.1782 28.8712 12.1224 28.9554 12.0519 29.0263C11.9814 29.0972 11.8975 29.1535 11.8052 29.1918C11.7128 29.2302 11.6138 29.25 11.5138 29.25H8.27997C8.17997 29.2503 8.0809 29.2308 7.98846 29.1926C7.89602 29.1545 7.81203 29.0984 7.74132 29.0277C7.67061 28.957 7.61458 28.873 7.57643 28.7806C7.53829 28.6882 7.51879 28.5891 7.51906 28.4891V14.9318C7.51906 14.73 7.59923 14.5365 7.74193 14.3938C7.88462 14.2511 8.07816 14.1709 8.27997 14.1709H11.5138C11.7153 14.1715 11.9083 14.2519 12.0506 14.3945C12.1928 14.5371 12.2727 14.7304 12.2727 14.9318ZM29.1763 21.9886V28.5505C29.1766 28.6424 29.1587 28.7335 29.1236 28.8185C29.0886 28.9035 29.0371 28.9807 28.972 29.0457C28.907 29.1107 28.8298 29.1622 28.7448 29.1973C28.6598 29.2324 28.5687 29.2503 28.4768 29.25H24.9995C24.9076 29.2503 24.8165 29.2324 24.7315 29.1973C24.6465 29.1622 24.5693 29.1107 24.5043 29.0457C24.4392 28.9807 24.3877 28.9035 24.3527 28.8185C24.3176 28.7335 24.2997 28.6424 24.3 28.5505V22.1911C24.3 21.242 24.5782 18.0348 21.8188 18.0348C19.6813 18.0348 19.2457 20.2295 19.1597 21.2155V28.5505C19.1598 28.7342 19.0875 28.9106 18.9585 29.0415C18.8295 29.1724 18.6542 29.2473 18.4704 29.25H15.1118C15.02 29.25 14.9292 29.2319 14.8444 29.1967C14.7596 29.1615 14.6827 29.11 14.6179 29.045C14.5531 28.98 14.5017 28.9029 14.4668 28.818C14.4319 28.7331 14.414 28.6422 14.4143 28.5505V14.8725C14.414 14.7807 14.4319 14.6898 14.4668 14.605C14.5017 14.5201 14.5531 14.443 14.6179 14.378C14.6827 14.313 14.7596 14.2614 14.8444 14.2262C14.9292 14.1911 15.02 14.173 15.1118 14.173H18.4704C18.656 14.173 18.8339 14.2467 18.9651 14.3778C19.0963 14.509 19.17 14.687 19.17 14.8725V16.0548C19.9636 14.8643 21.1397 13.9459 23.6495 13.9459C29.2091 13.9459 29.1763 19.1373 29.1763 21.9886Z" fill="white"/>
</g>
</g>
</g>
</g>
<defs>
<clipPath id="clip0_2486_3494">
<rect width="36" height="36" fill="white"/>
</clipPath>
</defs>
</svg>
