<svg width="494" height="267" viewBox="0 0 494 267" fill="none" xmlns="http://www.w3.org/2000/svg">
<g clipPath="url(#clip0_2317_628)">
<path d="M131.96 0H141.093C172.92 1.02667 204.28 13.3333 228.093 34.52C256.96 59.7867 274.44 97.6267 274.573 136.027C275.067 160.387 268.667 184.787 256.64 205.947C240.96 233.627 215.373 255.493 185.587 266.667H88.2533C40.52 249.267 4.72 203.32 0 152.667V122.627C3.24 90.8933 18.2933 60.5867 41.3067 38.5467C65.4 15.08 98.4 1.29333 131.96 0Z" fill="#FFB012"/>
<path d="M543.52 0H549.333V266.667H274.853C276.12 223.6 287.84 180.907 308.573 143.147C332.027 100.16 367.253 63.7067 409.373 38.7333C449.787 14.5733 496.48 1.28 543.52 0Z" fill="#D62828"/>
</g>
<defs>
<clipPath id="clip0_2317_628">
<rect width="549.333" height="266.667" fill="white"/>
</clipPath>
</defs>
</svg>
