<svg width="133" height="51" viewBox="0 0 133 51" fill="none" xmlns="http://www.w3.org/2000/svg">
<g id="Button container">
<g id="Button">
<path id="Vector" d="M16.5475 0C17.9402 0 19.3328 0 20.7343 0C20.7431 11.3629 20.7255 22.7346 20.7431 34.1064C19.6854 34.1241 18.6277 34.1418 17.5699 34.1684C17.2791 33.1402 16.9706 32.121 16.6268 31.1194C13.7269 33.8848 9.302 35.622 5.46772 33.7873C2.32097 32.5641 0.743186 29.1783 0.311279 26.0052C-0.490835 21.5115 0.170248 16.4327 3.317 12.9494C6.72819 9.28884 12.8895 9.20907 16.5651 12.5151C16.5298 8.34932 16.5475 4.17466 16.5475 0ZM7.00144 14.9348C4.40999 17.5761 4.21607 21.671 4.67443 25.1455C4.93886 28.0792 7.2218 31.1371 10.4038 30.9421C12.9247 30.9953 14.9344 29.2847 16.5827 27.574C16.5298 23.7894 16.521 20.0047 16.6004 16.2289C14.335 13.304 9.93664 12.5594 7.00144 14.9348Z" fill="#FFB012"/>
<path id="Vector_2" d="M27.4774 1.02795C28.7731 0.744324 30.1481 -0.204058 31.4703 0.54933C33.2156 1.28499 33.4712 3.67811 32.5721 5.1583C31.3998 6.59417 28.826 6.83348 27.7859 5.10512C26.64 4.00605 27.4421 2.37519 27.4774 1.02795Z" fill="#FFB012"/>
<path id="Vector_3" d="M88.3763 34.1152C88.3851 22.7435 88.3763 11.3717 88.3851 0C89.7778 0 91.1705 0 92.572 0C92.5808 11.3806 92.572 22.7523 92.572 34.1241C91.1705 34.1241 89.7778 34.1152 88.3763 34.1152Z" fill="#FFB012"/>
<path id="Vector_4" d="M39.2533 10.5205C40.4785 10.6712 41.7037 10.7687 42.9201 10.9549C42.9906 11.6639 43.1493 13.0821 43.2286 13.7911C45.2912 11.7526 47.8474 9.81147 50.9236 10.1571C54.6786 9.74056 58.0545 12.5591 59.0417 16.0868C60.69 21.3959 60.4344 28.1498 56.133 32.1472C52.6601 35.4621 46.9483 35.1519 43.4049 32.1206C43.449 35.4444 43.4314 38.7682 43.4314 42.1008C42.0387 42.1008 40.6372 42.1008 39.2445 42.1008C39.2533 31.5711 39.2269 21.0503 39.2533 10.5205ZM43.4049 17.2479C43.449 20.9882 43.4314 24.7374 43.4314 28.4778C45.6085 30.9329 49.4604 32.0497 52.3163 30.0909C55.6305 27.6092 55.8862 22.8407 55.2427 19.0737C55.0135 16.0159 52.237 13.1175 49.0373 13.7114C46.631 13.6759 45.018 15.7499 43.4049 17.2479Z" fill="#FFB012"/>
<path id="Vector_5" d="M64.1544 14.0223C67.6097 10.6897 73.0217 8.89043 77.5524 10.9645C80.3553 12.0901 81.7392 15.1834 81.7568 18.0818C81.8362 23.4175 81.7392 28.7533 81.7745 34.0979C81.0693 34.1157 79.6502 34.1688 78.945 34.1954C78.6542 33.2027 78.3104 32.2278 77.9314 31.2705C74.8728 33.9916 70.2804 35.7554 66.4285 33.6636C62.7441 32.015 62.2064 26.2716 65.4061 23.843C68.879 21.1751 73.5065 21.0421 77.6846 20.7231C77.5612 18.4274 77.7551 15.3164 75.3311 14.1198C72.0698 12.7371 69.0288 15.0416 66.1729 16.2825C65.4942 15.5291 64.8243 14.7757 64.1544 14.0223ZM68.3325 26.0766C66.8164 27.6897 67.6185 30.8007 69.8926 31.173C72.7749 32.0771 75.4105 30.198 77.57 28.5229C77.57 26.892 77.57 25.2523 77.5347 23.6214C74.388 23.8075 70.8181 23.8341 68.3325 26.0766Z" fill="#FFB012"/>
<path id="Vector_6" d="M105.08 10.7516C108.632 9.67027 112.792 9.9539 115.877 12.1697C121.113 16.1051 121.483 24.0999 118.592 29.5775C114.626 36.5086 102.832 36.0832 99.3061 28.895C96.2299 22.7349 97.9223 13.1359 105.08 10.7516ZM107.583 13.8006C102.056 15.2453 101.527 22.2031 103.061 26.7678C104.427 31.4476 111.311 32.5112 114.211 28.7443C116.397 25.2521 116.371 20.652 114.784 16.9294C113.665 14.1463 110.307 13.1181 107.583 13.8006Z" fill="#FFB012"/>
<path id="Vector_7" d="M28.0063 10.627C29.399 10.6358 30.8005 10.6358 32.1932 10.6358C32.1932 18.4622 32.1932 26.2974 32.202 34.1238C30.8005 34.1238 29.399 34.1238 28.0063 34.1238C28.0063 26.2974 28.0063 18.4622 28.0063 10.627Z" fill="#FFB012"/>
</g>
<g id="Text input">
<path id="Vector_8" d="M85.8817 36.5266C86.2255 36.4379 86.9218 36.2518 87.2744 36.1543C87.2832 37.3952 87.292 38.636 87.292 39.8769C88.103 39.9124 89.7248 39.9744 90.5358 40.0099C89.9187 41.2685 88.8346 41.8003 87.292 41.5964C87.3009 43.8034 87.2127 46.0015 87.3537 48.1996C88.5878 48.4921 89.7601 48.9442 90.8795 49.538C89.24 50.5662 87.3626 50.6814 85.6173 49.9103C84.9827 47.1626 85.0091 44.3441 85.0708 41.5432C84.6036 41.4901 83.6693 41.3748 83.2021 41.3128C84.8504 40.1694 85.4939 38.4233 85.8817 36.5266Z" fill="white"/>
<path id="Vector_9" d="M47.2305 39.3893C47.7946 39.5577 48.914 39.8857 49.4693 40.0452C50.7122 42.4295 51.4878 45.0265 52.4927 47.5082C53.6121 45.0265 54.4671 42.4295 55.6835 39.9832C56.2036 39.8148 57.2349 39.478 57.7549 39.3096C56.5033 43.0854 55.0401 46.7991 53.4006 50.4154C52.9775 50.4243 52.1401 50.4331 51.7258 50.442C49.9101 46.9055 48.5967 43.1208 47.2305 39.3893Z" fill="white"/>
<path id="Vector_10" d="M59.7294 42.0129C61.4129 39.9566 64.4715 38.6537 66.9043 40.2314C68.676 41.2064 68.5791 43.4222 68.9581 45.1594C66.3931 45.1949 63.8193 45.1772 61.2543 45.2126C61.695 47.0917 63.1317 49.733 65.4499 48.6782C66.5077 48.6605 69.0198 46.9676 68.773 49.2277C66.4283 50.7788 62.8056 51.3018 60.7518 48.9973C58.9184 47.136 59.4649 44.3352 59.7294 42.0129ZM61.1837 43.8033C63.1317 43.8743 65.0974 43.8743 67.0542 43.8743C66.6223 43.0145 66.2256 42.1459 65.8642 41.2596C65.1943 41.233 63.8457 41.1798 63.167 41.1532C62.4795 42.0218 61.8184 42.8993 61.1837 43.8033Z" fill="white"/>
<path id="Vector_11" d="M71.858 50.5042C72.3164 46.7461 70.7474 42.3942 72.8717 39.0615C73.2771 39.6288 73.6826 40.1872 74.0793 40.7456C75.8333 39.3806 78.8655 38.8311 80.2229 40.976C81.4481 43.9718 80.6989 47.3399 80.8928 50.4953C80.3375 50.5042 79.2357 50.5219 78.6892 50.5308C78.5041 47.3222 79.5001 43.7414 77.4287 40.9672C76.3093 41.4369 75.1899 41.9155 74.0793 42.4119C74.0793 45.1064 74.0704 47.8008 74.0704 50.5042C73.33 50.4864 72.5896 50.4864 71.858 50.5042Z" fill="white"/>
<path id="Vector_12" d="M92.757 39.6113C93.3211 39.6291 94.4405 39.6645 95.0046 39.6822C95.0487 42.2349 94.8195 44.8053 95.1721 47.3402C95.6305 49.4408 98.9271 49.2104 99.5353 47.3048C99.7468 44.761 99.597 42.1994 99.597 39.6468C100.161 39.6468 101.281 39.6468 101.836 39.6468C101.809 43.4315 101.924 47.2161 101.686 51.0008C99.5882 48.4304 96.6001 51.6744 94.2113 50.017C91.7345 47.1629 93.2241 43.0237 92.757 39.6113Z" fill="white"/>
<path id="Vector_13" d="M105.741 39.9476C106.023 39.7349 106.596 39.3095 106.887 39.0879C107.019 39.6197 107.274 40.6744 107.407 41.1974C108.535 40.0983 109.98 39.5133 111.541 39.3538C111.514 39.8767 111.47 40.9138 111.452 41.4278C109.98 41.6228 108.024 41.8001 107.698 43.626C107.398 45.8773 107.609 48.1551 107.574 50.4242C107.089 50.4685 106.12 50.5749 105.635 50.628C105.635 47.0738 105.344 43.4841 105.741 39.9476Z" fill="white"/>
<path id="Vector_14" d="M115.586 49.698C111.937 47.101 113.074 39.8153 117.984 39.576C121.245 39.0087 123.185 42.1907 123.167 45.0802C120.54 45.2131 117.913 45.1777 115.287 45.222C115.816 46.3565 116.159 47.6683 117.155 48.5192C119.139 49.6094 121.36 47.234 123.281 48.6521C121.245 50.6021 118.037 51.3023 115.586 49.698ZM115.304 43.8038C117.332 43.8836 119.368 43.8836 121.395 43.795C120.62 42.8732 120.276 41.1094 118.76 41.2246C116.953 40.7105 116.159 42.625 115.304 43.8038Z" fill="white"/>
<path id="Vector_15" d="M126.763 40.3464C128.517 38.8662 130.941 39.6551 132.81 40.4439C132.634 40.8162 132.281 41.5607 132.105 41.933C130.58 41.3834 127.495 40.2844 127.548 42.97C129.566 44.2995 133.788 44.7161 132.872 48.1019C131.717 51.4966 127.045 50.8407 124.718 49.13C126.798 47.5435 129.522 50.0518 131.514 47.7828C130.377 46.4356 128.755 45.8151 127.186 45.1504C125.097 44.5654 125.044 41.3746 126.763 40.3464Z" fill="white"/>
</g>
</g>
</svg>
