<svg width="152" height="152" viewBox="0 0 152 152" fill="none" xmlns="http://www.w3.org/2000/svg">
<g id="Frame">
<g id="Group">
<path id="Vector" d="M105.052 94.5452H125.538V108.112C125.538 109.404 124.041 110.113 123.042 109.294L116.264 103.737C115.992 103.511 115.649 103.387 115.295 103.387C114.941 103.387 114.599 103.511 114.326 103.737L107.548 109.294C106.549 110.113 105.052 109.404 105.052 108.112V94.5452H105.052ZM57.5244 139.881H6.21582C5.5624 139.881 5.02832 140.415 5.02832 141.068V148.141C5.02832 148.794 5.5627 149.328 6.21582 149.328H57.5244C58.1776 149.328 58.7119 148.794 58.7119 148.141V141.068C58.7119 140.415 58.1776 139.881 57.5244 139.881ZM48.1328 87.8311C43.8317 91.7243 38.1275 94.0963 31.8703 94.0963C25.6127 94.0963 19.9089 91.7243 15.6075 87.8311L11.3022 135.131H52.4378L48.1328 87.8311ZM96.8043 67.6872C96.8043 74.3559 100.335 80.1993 105.628 83.4522V68.0838L115.295 62.5023L124.963 68.0838V83.4522C130.256 80.1993 133.787 74.3559 133.787 67.6872C133.787 57.4747 125.508 49.196 115.295 49.196C105.083 49.196 96.8043 57.4747 96.8043 67.6872ZM107.204 44.0972V45.8951C109.793 44.934 112.533 44.4433 115.295 44.446C118.057 44.4432 120.798 44.934 123.387 45.8951V44.0972C123.387 42.4478 122.038 41.0982 120.388 41.0982H110.203C108.553 41.0982 107.204 42.4478 107.204 44.0972ZM104.227 39.1709C105.65 37.4484 107.801 36.3485 110.203 36.3485H117.031L103.21 19.4982C101.873 24.4545 98.3661 28.5211 93.7705 30.6138L104.227 39.1709ZM74.3281 15.0332C74.3281 8.20622 79.8625 2.67188 86.6894 2.67188C93.5164 2.67188 99.0507 8.20622 99.0507 15.0332C99.0507 21.8601 93.5164 27.3944 86.6894 27.3944C79.8625 27.3944 74.3281 21.8601 74.3281 15.0332ZM82.2069 15.0332C82.2069 17.5088 84.2138 19.5157 86.6894 19.5157C89.1651 19.5157 91.1719 17.5088 91.1719 15.0332C91.1719 12.5575 89.1651 10.5506 86.6894 10.5506C84.2138 10.5506 82.2069 12.5575 82.2069 15.0332ZM146.973 98.0026V145.871C146.973 147.773 145.417 149.328 143.515 149.328H87.0757C85.1739 149.328 83.6183 147.773 83.6183 145.871V98.0026C83.6183 96.1011 85.1739 94.5452 87.0757 94.5452H100.302V108.112C100.302 113.401 106.47 116.32 110.56 112.967L115.295 109.085L120.031 112.967C124.121 116.32 130.288 113.401 130.288 108.112V94.5452H143.515C145.417 94.5452 146.973 96.1008 146.973 98.0026ZM109.204 131.535C109.204 130.882 108.67 130.348 108.017 130.348H95.1783C94.5248 130.348 93.9908 130.882 93.9908 131.535V137.768C93.9908 138.422 94.5248 138.956 95.1783 138.956H108.017C108.67 138.956 109.204 138.422 109.204 137.768V131.535ZM12.376 69.8523C12.376 59.0861 21.1038 50.3583 31.87 50.3583C42.6362 50.3583 51.364 59.0861 51.364 69.8523C51.364 80.6188 42.6362 89.3463 31.87 89.3463C21.1038 89.3463 12.376 80.6188 12.376 69.8523ZM23.6139 69.8523C23.6139 74.4123 27.3103 78.1087 31.8703 78.1087C36.43 78.1087 40.1267 74.4123 40.1267 69.8523C40.1267 65.2926 36.4303 61.5959 31.8703 61.5959C27.3103 61.5959 23.6139 65.2926 23.6139 69.8523ZM56.0294 67.8312L84.8726 32.048C76.8747 31.2033 70.5189 24.8472 69.6743 16.8497L33.8911 45.6932C45.6666 46.6655 55.0571 56.0556 56.0294 67.8312Z" fill="#4F4F4F"/>
</g>
</g>
</svg>
