<svg width="152" height="152" viewBox="0 0 152 152" fill="none" xmlns="http://www.w3.org/2000/svg">
<g id="Frame">
<g id="Group">
<path id="Vector" d="M33.25 109.25H14.25C12.9902 109.25 11.782 109.75 10.8912 110.641C10.0004 111.532 9.5 112.74 9.5 114V133C9.5 134.26 10.0004 135.468 10.8912 136.359C11.782 137.25 12.9902 137.75 14.25 137.75H33.25C34.5098 137.75 35.718 137.25 36.6088 136.359C37.4996 135.468 38 134.26 38 133V114C38 112.74 37.4996 111.532 36.6088 110.641C35.718 109.75 34.5098 109.25 33.25 109.25ZM47.5 104.5H66.5C67.7598 104.5 68.968 104 69.8588 103.109C70.7496 102.218 71.25 101.01 71.25 99.75V80.75C71.25 79.4902 70.7496 78.282 69.8588 77.3912C68.968 76.5004 67.7598 76 66.5 76H47.5C46.2402 76 45.032 76.5004 44.1412 77.3912C43.2504 78.282 42.75 79.4902 42.75 80.75V99.75C42.75 101.01 43.2504 102.218 44.1412 103.109C45.032 104 46.2402 104.5 47.5 104.5ZM80.75 71.25H99.75C101.01 71.25 102.218 70.7496 103.109 69.8588C104 68.968 104.5 67.7598 104.5 66.5V47.5C104.5 46.2402 104 45.032 103.109 44.1412C102.218 43.2504 101.01 42.75 99.75 42.75H80.75C79.4902 42.75 78.282 43.2504 77.3912 44.1412C76.5004 45.032 76 46.2402 76 47.5V66.5C76 67.7598 76.5004 68.968 77.3912 69.8588C78.282 70.7496 79.4902 71.25 80.75 71.25ZM114 38H133C134.26 38 135.468 37.4996 136.359 36.6088C137.25 35.718 137.75 34.5098 137.75 33.25V14.25C137.75 12.9902 137.25 11.782 136.359 10.8912C135.468 10.0004 134.26 9.5 133 9.5H114C112.74 9.5 111.532 10.0004 110.641 10.8912C109.75 11.782 109.25 12.9902 109.25 14.25V33.25C109.25 34.5098 109.75 35.718 110.641 36.6088C111.532 37.4996 112.74 38 114 38Z" fill="#4F4F4F"/>
<path id="Vector_2" d="M137.75 42.75H114C112.74 42.75 111.532 43.2504 110.641 44.1412C109.75 45.032 109.25 46.2402 109.25 47.5V76H80.75C79.4902 76 78.282 76.5004 77.3912 77.3912C76.5004 78.282 76 79.4902 76 80.75V109.25H47.5C46.2402 109.25 45.032 109.75 44.1412 110.641C43.2504 111.532 42.75 112.74 42.75 114V137.75C42.75 139.01 43.2504 140.218 44.1412 141.109C45.032 142 46.2402 142.5 47.5 142.5C48.7598 142.5 49.968 142 50.8588 141.109C51.7496 140.218 52.25 139.01 52.25 137.75V118.75H80.75C82.0098 118.75 83.218 118.25 84.1088 117.359C84.9996 116.468 85.5 115.26 85.5 114V85.5H114C115.26 85.5 116.468 84.9996 117.359 84.1088C118.25 83.218 118.75 82.0098 118.75 80.75V52.25H137.75C139.01 52.25 140.218 51.7496 141.109 50.8588C142 49.968 142.5 48.7598 142.5 47.5C142.5 46.2402 142 45.032 141.109 44.1412C140.218 43.2504 139.01 42.75 137.75 42.75Z" fill="#4F4F4F"/>
</g>
</g>
</svg>
