<svg width="152" height="152" viewBox="0 0 152 152" fill="none" xmlns="http://www.w3.org/2000/svg">
<g id="Frame" clip-path="url(#clip0_2486_2560)">
<g id="Group">
<path id="Vector" d="M142.5 9.5H34.8333C32.3138 9.5 29.8974 10.5009 28.1158 12.2825C26.3342 14.0641 25.3333 16.4804 25.3333 19V34.8333H9.5C6.98044 34.8333 4.56408 35.8342 2.78249 37.6158C1.00089 39.3974 0 41.8138 0 44.3333L0 133C0 135.52 1.00089 137.936 2.78249 139.718C4.56408 141.499 6.98044 142.5 9.5 142.5H117.167C119.686 142.5 122.103 141.499 123.884 139.718C125.666 137.936 126.667 135.52 126.667 133V117.167H142.5C145.02 117.167 147.436 116.166 149.218 114.384C150.999 112.603 152 110.186 152 107.667V19C152 16.4804 150.999 14.0641 149.218 12.2825C147.436 10.5009 145.02 9.5 142.5 9.5ZM63.3333 123.5C63.3333 124.34 62.9997 125.145 62.4058 125.739C61.812 126.333 61.0065 126.667 60.1667 126.667H15.8333C14.9935 126.667 14.188 126.333 13.5942 125.739C13.0003 125.145 12.6667 124.34 12.6667 123.5V53.8333C12.6667 52.9935 13.0003 52.188 13.5942 51.5942C14.188 51.0003 14.9935 50.6667 15.8333 50.6667H60.1667C61.0065 50.6667 61.812 51.0003 62.4058 51.5942C62.9997 52.188 63.3333 52.9935 63.3333 53.8333V123.5ZM113.848 111.806C113.093 114.391 111.771 116.775 109.978 118.784C108.185 120.793 105.966 122.378 103.484 123.421C101.039 124.301 98.4031 124.512 95.8496 124.031C93.2961 123.55 90.9178 122.395 88.9612 120.685C88.1745 119.995 87.421 119.268 86.7033 118.506C85.7787 117.326 84.5841 116.386 83.22 115.764C82.5346 115.792 81.867 115.991 81.278 116.343C80.6891 116.694 80.1973 117.188 79.8475 117.778C78.423 119.894 77.3016 122.2 76.5162 124.627C76.2878 125.227 75.8827 125.743 75.3545 126.107C74.8264 126.471 74.2 126.666 73.5585 126.667C73.1724 126.667 72.7894 126.597 72.428 126.461C72.0393 126.313 71.6837 126.089 71.3813 125.804C71.079 125.518 70.8359 125.176 70.6659 124.796C70.4959 124.416 70.4024 124.007 70.3907 123.591C70.379 123.175 70.4493 122.761 70.5977 122.373C71.5897 119.356 73.0194 116.5 74.841 113.899C75.8788 112.339 77.336 111.105 79.0447 110.337C80.7535 109.57 82.6443 109.3 84.4993 109.56C87.1581 110.346 89.5122 111.927 91.2443 114.092C91.8428 114.709 92.4382 115.33 93.0683 115.865C94.159 116.851 95.4964 117.523 96.9382 117.809C98.3801 118.096 99.8726 117.986 101.257 117.493C102.841 116.775 104.248 115.721 105.382 114.402C106.515 113.084 107.347 111.534 107.819 109.861C108.111 109.107 108.68 108.493 109.41 108.146C110.14 107.798 110.976 107.743 111.745 107.992C112.515 108.241 113.16 108.774 113.548 109.483C113.937 110.192 114.04 111.023 113.835 111.806H113.848ZM69.6667 91.8333C69.6667 90.9935 70.0003 90.188 70.5942 89.5942C71.188 89.0003 71.9935 88.6667 72.8333 88.6667H85.5C86.3399 88.6667 87.1453 89.0003 87.7392 89.5942C88.333 90.188 88.6667 90.9935 88.6667 91.8333C88.6667 92.6732 88.333 93.4786 87.7392 94.0725C87.1453 94.6664 86.3399 95 85.5 95H72.8333C71.9935 95 71.188 94.6664 70.5942 94.0725C70.0003 93.4786 69.6667 92.6732 69.6667 91.8333ZM110.833 95H98.1667C97.3268 95 96.5214 94.6664 95.9275 94.0725C95.3336 93.4786 95 92.6732 95 91.8333C95 90.9935 95.3336 90.188 95.9275 89.5942C96.5214 89.0003 97.3268 88.6667 98.1667 88.6667H110.833C111.673 88.6667 112.479 89.0003 113.073 89.5942C113.666 90.188 114 90.9935 114 91.8333C114 92.6732 113.666 93.4786 113.073 94.0725C112.479 94.6664 111.673 95 110.833 95ZM110.833 76H72.8333C71.9935 76 71.188 75.6664 70.5942 75.0725C70.0003 74.4786 69.6667 73.6732 69.6667 72.8333C69.6667 71.9935 70.0003 71.188 70.5942 70.5942C71.188 70.0003 71.9935 69.6667 72.8333 69.6667H110.833C111.673 69.6667 112.479 70.0003 113.073 70.5942C113.666 71.188 114 71.9935 114 72.8333C114 73.6732 113.666 74.4786 113.073 75.0725C112.479 75.6664 111.673 76 110.833 76ZM110.833 57H72.8333C71.9935 57 71.188 56.6664 70.5942 56.0725C70.0003 55.4786 69.6667 54.6732 69.6667 53.8333C69.6667 52.9935 70.0003 52.188 70.5942 51.5942C71.188 51.0003 71.9935 50.6667 72.8333 50.6667H110.833C111.673 50.6667 112.479 51.0003 113.073 51.5942C113.666 52.188 114 52.9935 114 53.8333C114 54.6732 113.666 55.4786 113.073 56.0725C112.479 56.6664 111.673 57 110.833 57ZM145.667 107.667C145.667 108.507 145.333 109.312 144.739 109.906C144.145 110.5 143.34 110.833 142.5 110.833H126.667V44.3333C126.667 41.8138 125.666 39.3974 123.884 37.6158C122.103 35.8342 119.686 34.8333 117.167 34.8333H31.6667V19C31.6667 18.1601 32.0003 17.3547 32.5942 16.7608C33.188 16.167 33.9935 15.8333 34.8333 15.8333H142.5C143.34 15.8333 144.145 16.167 144.739 16.7608C145.333 17.3547 145.667 18.1601 145.667 19V107.667ZM19 57H57V120.333H19V57Z" fill="#373737"/>
</g>
</g>
<defs>
<clipPath id="clip0_2486_2560">
<rect width="152" height="152" fill="white"/>
</clipPath>
</defs>
</svg>
