<svg width="152" height="152" viewBox="0 0 152 152" fill="none" xmlns="http://www.w3.org/2000/svg">
<g id="Frame">
<g id="Group">
<path id="Vector" d="M128.118 120.019L123.023 112.715C111.794 120.547 98.6136 124.687 84.9062 124.687C48.0745 124.687 18.1094 94.7218 18.1094 57.89C18.1094 44.1827 22.2493 31.002 30.0818 19.773L22.7768 14.6777C13.897 27.4086 9.20312 42.3512 9.20312 57.89C9.20312 95.0756 36.1531 126.085 71.5469 132.412V143.093H44.8281V151.999H124.984V143.093H98.2656V132.413C108.945 130.508 119.088 126.318 128.118 120.019Z" fill="#373737"/>
<path id="Vector_2" d="M81.0261 115.65C80.6431 112.952 80.4531 110.229 80.4531 107.501C80.4531 104.232 79.0341 102.689 74.9342 98.7105C71.627 95.4776 72.8116 96.6116 69.7033 93.5152L72.8502 90.3654C77.4398 85.7757 79.1231 83.0029 76.9678 78.6923L72.5444 69.8454L53.3039 57.0174C47.6098 53.2234 45.6742 45.653 48.8953 39.7868C50.4509 36.9605 48.9191 33.4426 45.7959 32.6648L34.3039 29.791C29.6608 38.1184 27.0156 47.7015 27.0156 57.8902C27.0156 88.507 50.9081 113.649 81.0261 115.65Z" fill="#373737"/>
<path id="Vector_3" d="M56.703 44.077C55.6877 45.9236 56.3645 48.355 58.2438 49.6078L67.7438 55.9402C67.2302 47.4614 72.2384 41.5209 78.2887 38.4156C80.8389 37.1094 80.3342 33.8705 80.453 31.1719C80.453 23.8064 86.4469 17.8125 93.8123 17.8125C97.2828 17.8125 103.553 17.4295 103.636 13.9472V3.10828C97.7608 1.09547 91.4581 0 84.9061 0C66.5652 0 50.1866 8.57672 39.5703 21.9272L47.957 24.0231C56.7356 26.22 61.073 36.1178 56.703 44.077ZM89.3592 107.501C89.3592 110.2 89.5819 112.899 90.0213 115.559C103.087 114.407 114.92 108.9 124.055 100.501C118.266 96.4636 113.43 91.5384 111.099 89.0031C103.9 88.4628 97.553 84.2323 94.2814 77.6952C92.2953 73.72 88.2994 71.25 83.8552 71.25H83.205L84.9358 74.7086C89.0267 82.8905 85.6631 89.2139 82.2164 93.3702C86.153 97.2355 89.3592 100.893 89.3592 107.501Z" fill="#373737"/>
<path id="Vector_4" d="M108.404 63.2376C105.542 56.3204 107.454 46.856 111.085 43.2282C113.029 41.2837 123.004 29.0405 129.488 21.0012C124.794 15.3398 119.044 10.5809 112.542 7.0332V14.0662C112.477 17.7979 110.904 20.9329 107.991 23.1327C104.794 25.5463 100.157 26.719 93.8124 26.719C91.3573 26.719 89.3593 28.717 89.3593 31.1721C89.389 37.8221 88.4776 43.2015 82.353 46.3424C76.1958 49.4982 74.9846 54.8835 78.7549 62.344H83.8552C91.6957 62.344 98.7435 66.6991 102.25 73.7113C104.236 77.6865 108.232 80.1565 112.676 80.1565H115.187L116.517 81.7032C119.798 85.5032 125.017 90.4788 130.189 93.9196C135.063 87.8069 138.727 80.6879 140.814 72.9276C130.895 71.8677 122.152 71.2502 120.531 71.2502C114.935 71.2502 110.515 68.329 108.404 63.2376Z" fill="#373737"/>
<path id="Vector_5" d="M134.814 28.5801C129.025 35.7407 119.644 47.2624 117.381 49.5246C116.354 50.6676 115.06 56.3023 116.699 59.9835C117.447 61.6609 118.557 62.3437 120.531 62.3437C122.773 62.3437 132.103 63.0116 142.461 64.1398C142.684 62.0854 142.797 60.0013 142.797 57.8905C142.797 47.203 139.885 37.1835 134.814 28.5801Z" fill="#373737"/>
</g>
</g>
</svg>
