<?xml version="1.0" encoding="UTF-8" standalone="no"?>
<!DOCTYPE svg PUBLIC "-//W3C//DTD SVG 1.1//EN" "http://www.w3.org/Graphics/SVG/1.1/DTD/svg11.dtd">
<svg width="100%" height="100%" viewBox="0 0 795 116" version="1.1" xmlns="http://www.w3.org/2000/svg" xmlns:xlink="http://www.w3.org/1999/xlink" xml:space="preserve" xmlns:serif="http://www.serif.com/" style="fill-rule:evenodd;clip-rule:evenodd;stroke-linejoin:round;stroke-miterlimit:1.41421;">
    <g id="Layer-1" serif:id="Layer 1">
        <g transform="matrix(-0.708945,0.705264,0.705264,0.708945,28.4925,26.1702)">
            <path d="M-26.226,-10.824L4.468,-10.824L-8.509,2.073L-26.227,-10.823L-26.226,-10.824Z" style="fill:rgb(227,114,94);fill-rule:nonzero;"/>
        </g>
        <g transform="matrix(1,0,0,1,35.7795,0.0053)">
            <path d="M0,21.642L25.42,21.642L3.666,0L0,21.642Z" style="fill:rgb(225,35,41);fill-rule:nonzero;"/>
        </g>
        <g transform="matrix(1,0,0,1,0,3.645)">
            <path d="M0,94.463L78.889,94.463L78.889,17.7L0,17.7L0,94.463ZM19.567,36.203L59.323,36.203L59.323,75.96L19.567,75.96L19.567,36.203Z" style="fill:rgb(42,82,103);fill-rule:nonzero;"/>
        </g>
        <g transform="matrix(1,0,0,1,151.59,45.4025)">
            <path d="M0,28.531C0,25.932 -0.565,24.084 -1.694,22.989C-2.823,21.895 -4.859,21.347 -7.801,21.347L-20.117,21.347L-20.117,35.819L-7.493,35.819C-4.757,35.819 -2.823,35.323 -1.694,34.33C-0.565,33.339 0,31.405 0,28.531M-1.643,-0.514C-1.643,-2.908 -2.156,-4.568 -3.183,-5.491C-4.208,-6.415 -5.989,-6.877 -8.519,-6.877L-20.117,-6.877L-20.117,6.26L-8.314,6.26C-5.852,6.26 -4.124,5.746 -3.131,4.72C-2.141,3.694 -1.643,1.948 -1.643,-0.514M21.45,30.071C21.45,33.56 20.886,36.708 19.756,39.512C18.627,42.319 16.882,44.696 14.521,46.646C12.161,48.596 9.134,50.102 5.438,51.162C1.744,52.223 -2.669,52.753 -7.801,52.753L-40.747,52.753L-40.747,-24.222L-7.698,-24.222C-3.251,-24.222 0.631,-23.743 3.951,-22.786C7.269,-21.827 10.04,-20.476 12.264,-18.732C14.486,-16.987 16.146,-14.883 17.241,-12.42C18.336,-9.957 18.884,-7.219 18.884,-4.209C18.884,-0.035 17.977,3.37 16.164,6.003C14.351,8.638 11.905,10.639 8.825,12.008L8.825,12.212C17.241,14.814 21.45,20.766 21.45,30.071" style="fill:rgb(42,82,104);fill-rule:nonzero;"/>
        </g>
        <g transform="matrix(1,0,0,1,215.221,61.3104)">
            <path d="M0,10.878C-0.753,10.673 -1.677,10.468 -2.771,10.263C-3.866,10.057 -5.2,9.955 -6.773,9.955C-11.905,9.955 -14.471,12.179 -14.471,16.627C-14.471,18.884 -13.873,20.51 -12.675,21.501C-11.479,22.494 -9.888,22.989 -7.902,22.989C-5.783,22.989 -3.936,22.461 -2.36,21.399C-0.787,20.338 0,18.953 0,17.242L0,10.878ZM2.978,31.713C0.924,33.699 -1.473,35.22 -4.208,36.28C-6.945,37.34 -9.991,37.871 -13.342,37.871C-19.5,37.871 -24.308,36.127 -27.762,32.637C-31.219,29.148 -32.944,23.879 -32.944,16.831C-32.944,13.958 -32.432,11.307 -31.405,8.877C-30.379,6.449 -28.909,4.361 -26.992,2.617C-25.078,0.872 -22.733,-0.496 -19.962,-1.489C-17.19,-2.48 -14.061,-2.976 -10.571,-2.976C-8.45,-2.976 -6.534,-2.856 -4.823,-2.618C-3.114,-2.377 -1.506,-2.054 0,-1.643L0,-3.9C0,-6.226 -0.753,-8.006 -2.257,-9.238C-3.764,-10.47 -6.465,-11.085 -10.366,-11.085C-12.146,-11.085 -13.753,-11.016 -15.189,-10.88C-16.627,-10.742 -18.012,-10.554 -19.347,-10.315C-20.68,-10.075 -21.999,-9.751 -23.298,-9.34C-24.599,-8.93 -26.001,-8.45 -27.506,-7.904L-29.045,-22.888C-22.682,-25.624 -15.225,-26.993 -6.671,-26.993C-1.744,-26.993 2.395,-26.463 5.748,-25.403C9.1,-24.341 11.803,-22.734 13.856,-20.579C15.908,-18.424 17.379,-15.72 18.27,-12.471C19.157,-9.22 19.604,-5.441 19.604,-1.13L19.604,36.845L4.414,36.845L2.978,31.713Z" style="fill:rgb(42,82,104);fill-rule:nonzero;"/>
        </g>
        <g transform="matrix(0,-1,-1,-0,298.406,68.0332)">
            <path d="M-30.122,50.137L49.213,50.137L50.137,30.122L-30.122,30.122L-30.122,50.137Z" style="fill:rgb(42,82,104);fill-rule:nonzero;"/>
        </g>
        <g transform="matrix(0,-1,-1,-0,333.197,68.0327)">
            <path d="M-30.122,50.137L49.212,50.137L50.137,30.122L-30.122,30.122L-30.122,50.137Z" style="fill:rgb(42,82,104);fill-rule:nonzero;"/>
        </g>
        <g transform="matrix(1,0,0,1,335.198,66.75)">
            <path d="M0,0.307C0,3.797 0.17,6.655 0.513,8.877C0.854,11.101 1.386,12.846 2.104,14.112C2.822,15.379 3.763,16.251 4.927,16.728C6.089,17.208 7.525,17.447 9.237,17.447C10.947,17.447 12.384,17.208 13.548,16.728C14.711,16.251 15.651,15.36 16.37,14.06C17.089,12.761 17.603,11.016 17.909,8.826C18.218,6.637 18.371,3.797 18.371,0.307C18.371,-3.183 18.218,-6.038 17.909,-8.263C17.603,-10.485 17.089,-12.23 16.37,-13.497C15.651,-14.762 14.711,-15.634 13.548,-16.114C12.384,-16.592 10.947,-16.833 9.237,-16.833C7.525,-16.833 6.071,-16.592 4.876,-16.114C3.677,-15.634 2.72,-14.762 2.002,-13.497C1.283,-12.23 0.77,-10.485 0.462,-8.263C0.154,-6.038 0,-3.183 0,0.307M38.797,0.307C38.797,6.055 38.214,10.981 37.052,15.086C35.887,19.192 34.108,22.562 31.714,25.196C29.318,27.83 26.257,29.763 22.528,30.994C18.798,32.226 14.334,32.842 9.135,32.842C-1.129,32.842 -8.639,30.293 -13.394,25.196C-18.15,20.099 -20.526,11.802 -20.526,0.307C-20.526,-11.188 -18.133,-19.535 -13.343,-24.735C-8.554,-29.935 -1.026,-32.535 9.237,-32.535C14.369,-32.535 18.798,-31.902 22.528,-30.637C26.257,-29.37 29.336,-27.404 31.766,-24.735C34.193,-22.067 35.973,-18.662 37.104,-14.524C38.232,-10.382 38.797,-5.441 38.797,0.307" style="fill:rgb(42,82,104);fill-rule:nonzero;"/>
        </g>
        <g transform="matrix(1,0,0,1,406.426,70.2388)">
            <path d="M0,-20.629L0,8.211C0,10.196 0.511,11.649 1.54,12.572C2.565,13.496 4.206,13.958 6.465,13.958C7.217,13.958 8.072,13.891 9.03,13.753C9.989,13.617 10.741,13.445 11.289,13.24L12.314,26.993C11.152,27.541 9.491,28.002 7.337,28.378C5.182,28.753 2.873,28.943 0.411,28.943C-6.501,28.943 -11.598,27.113 -14.884,23.452C-18.168,19.792 -19.809,14.882 -19.809,8.724L-19.809,-20.629L-25.762,-20.629L-25.762,-34.896L-18.783,-34.896L-15.603,-48.238L0,-49.572L0,-34.896L13.033,-34.896L13.033,-20.629L0,-20.629Z" style="fill:rgb(42,82,104);fill-rule:nonzero;"/>
        </g>
        <g transform="matrix(1,0,0,1,471.38,72.3943)">
            <path d="M0,-25.453C0,-28.873 -0.616,-31.165 -1.848,-32.33C-3.079,-33.493 -5.304,-34.075 -8.52,-34.075L-16.626,-34.075L-16.626,-16.422L-8.725,-16.422C-7.151,-16.422 -5.798,-16.54 -4.671,-16.781C-3.541,-17.02 -2.635,-17.464 -1.949,-18.115C-1.268,-18.765 -0.771,-19.688 -0.463,-20.886C-0.153,-22.082 0,-23.606 0,-25.453M22.374,-26.274C22.374,-21.142 21.363,-16.729 19.346,-13.035C17.328,-9.34 14.472,-6.739 10.776,-5.235L27.506,25.761L2.462,25.761L-8.827,-1.027L-16.626,-1.027L-16.626,25.761L-38.077,25.761L-38.077,-51.214L-8.725,-51.214C1.676,-51.214 9.458,-49.229 14.625,-45.262C19.79,-41.293 22.374,-34.963 22.374,-26.274" style="fill:rgb(42,82,104);fill-rule:nonzero;"/>
        </g>
        <g transform="matrix(1,0,0,1,539.734,73.626)">
            <path d="M0,-13.65C-0.138,-17.276 -0.908,-19.842 -2.31,-21.348C-3.713,-22.852 -5.782,-23.606 -8.519,-23.606C-10.024,-23.606 -11.29,-23.434 -12.316,-23.092C-13.344,-22.749 -14.198,-22.203 -14.882,-21.45C-15.566,-20.697 -16.098,-19.688 -16.474,-18.423C-16.85,-17.156 -17.106,-15.566 -17.242,-13.65L0,-13.65ZM-4.722,25.659C-15.944,25.659 -24.187,22.82 -29.457,17.14C-34.726,11.461 -37.359,3.319 -37.359,-7.287C-37.359,-12.281 -36.795,-16.763 -35.666,-20.732C-34.536,-24.699 -32.791,-28.053 -30.431,-30.79C-28.07,-33.526 -25.078,-35.63 -21.45,-37.102C-17.825,-38.573 -13.547,-39.309 -8.621,-39.309C-0.275,-39.309 6.26,-36.913 10.982,-32.125C15.703,-27.335 18.063,-19.979 18.063,-10.059C18.063,-8.621 18.012,-7.115 17.909,-5.543C17.806,-3.967 17.686,-2.531 17.551,-1.232L-16.833,-1.232C-16.422,2.601 -15.054,5.303 -12.727,6.876C-10.401,8.451 -6.912,9.237 -2.258,9.237C3.557,9.237 9.064,8.383 14.267,6.671L16.421,21.861C13.82,23.025 10.673,23.949 6.979,24.632C3.284,25.315 -0.616,25.659 -4.722,25.659" style="fill:rgb(42,82,104);fill-rule:nonzero;"/>
        </g>
        <g transform="matrix(1,0,0,1,599.363,61.3104)">
            <path d="M0,10.878C-0.754,10.673 -1.678,10.468 -2.771,10.263C-3.867,10.057 -5.2,9.955 -6.774,9.955C-11.905,9.955 -14.472,12.179 -14.472,16.627C-14.472,18.884 -13.873,20.51 -12.676,21.501C-11.479,22.494 -9.888,22.989 -7.903,22.989C-5.783,22.989 -3.936,22.461 -2.36,21.399C-0.787,20.338 0,18.953 0,17.242L0,10.878ZM2.977,31.713C0.924,33.699 -1.472,35.22 -4.208,36.28C-6.946,37.34 -9.991,37.871 -13.343,37.871C-19.501,37.871 -24.309,36.127 -27.764,32.637C-31.218,29.148 -32.945,23.879 -32.945,16.831C-32.945,13.958 -32.433,11.307 -31.407,8.877C-30.38,6.449 -28.909,4.361 -26.993,2.617C-25.077,0.872 -22.733,-0.496 -19.962,-1.489C-17.191,-2.48 -14.061,-2.976 -10.571,-2.976C-8.451,-2.976 -6.535,-2.856 -4.824,-2.618C-3.114,-2.377 -1.505,-2.054 0,-1.643L0,-3.9C0,-6.226 -0.754,-8.006 -2.259,-9.238C-3.764,-10.47 -6.467,-11.085 -10.365,-11.085C-12.146,-11.085 -13.753,-11.016 -15.189,-10.88C-16.626,-10.742 -18.013,-10.554 -19.346,-10.315C-20.681,-10.075 -21.999,-9.751 -23.298,-9.34C-24.598,-8.93 -26.001,-8.45 -27.506,-7.904L-29.047,-22.888C-22.682,-25.624 -15.225,-26.993 -6.672,-26.993C-1.744,-26.993 2.394,-26.463 5.748,-25.403C9.099,-24.341 11.804,-22.734 13.854,-20.579C15.907,-18.424 17.379,-15.72 18.268,-12.471C19.157,-9.22 19.603,-5.441 19.603,-1.13L19.603,36.845L4.413,36.845L2.977,31.713Z" style="fill:rgb(42,82,104);fill-rule:nonzero;"/>
        </g>
        <g transform="matrix(1,0,0,1,666.792,62.6446)">
            <path d="M0,-8.006C-0.754,-8.963 -1.831,-9.784 -3.232,-10.469C-4.636,-11.152 -6.227,-11.496 -8.005,-11.496C-9.647,-11.496 -11.051,-11.239 -12.213,-10.725C-13.378,-10.213 -14.316,-9.34 -15.034,-8.109C-15.755,-6.877 -16.284,-5.235 -16.627,-3.182C-16.969,-1.13 -17.14,1.436 -17.14,4.515C-17.14,7.869 -17.002,10.622 -16.729,12.777C-16.456,14.933 -15.958,16.643 -15.24,17.909C-14.521,19.176 -13.583,20.065 -12.419,20.577C-11.256,21.09 -9.749,21.348 -7.901,21.348C-5.919,21.348 -4.259,20.937 -2.926,20.116C-1.591,19.295 -0.615,18.337 0,17.242L0,-8.006ZM4.312,35.511L2.565,30.584C0.581,32.57 -1.711,34.092 -4.311,35.152C-6.911,36.211 -9.989,36.743 -13.548,36.743C-21.416,36.743 -27.386,34.057 -31.457,28.685C-35.528,23.315 -37.564,15.019 -37.564,3.797C-37.564,-6.466 -35.562,-14.403 -31.559,-20.014C-27.557,-25.624 -21.689,-28.43 -13.957,-28.43C-8.62,-28.43 -3.97,-26.821 0,-23.607L0.205,-23.812L0,-32.022L0,-43.825L19.706,-44.749L19.706,35.511L4.312,35.511Z" style="fill:rgb(42,82,104);fill-rule:nonzero;"/>
        </g>
        <g transform="matrix(1,0,0,1,713.183,49.4045)">
            <path d="M0,52.343C2.053,52.343 3.83,52 5.337,51.317C6.841,50.632 8.038,49.298 8.929,47.314L9.134,46.698L-17.55,-14.061L4.824,-14.061L15.907,19.397L18.372,27.3L18.679,27.3L20.423,19.193L28.326,-14.061L49.264,-14.061L28.737,46.698C26.342,53.745 23.074,58.791 18.937,61.837C14.795,64.88 9.68,66.404 3.591,66.404C-0.513,66.404 -4.276,65.753 -7.698,64.454L-6.261,51.111C-5.099,51.589 -4.038,51.915 -3.079,52.087C-2.122,52.256 -1.096,52.343 0,52.343" style="fill:rgb(42,82,104);fill-rule:nonzero;"/>
        </g>
        <g transform="matrix(1,0,0,1,780.667,36.9992)">
            <path d="M0,-18.241C-5.029,-18.241 -9.121,-14.149 -9.121,-9.12C-9.121,-4.091 -5.029,0 0,0C5.029,0 9.12,-4.091 9.12,-9.12C9.12,-14.149 5.029,-18.241 0,-18.241M0,1.726C-5.98,1.726 -10.847,-3.139 -10.847,-9.12C-10.847,-15.101 -5.98,-19.967 0,-19.967C5.98,-19.967 10.846,-15.101 10.846,-9.12C10.846,-3.139 5.98,1.726 0,1.726" style="fill:rgb(42,82,104);fill-rule:nonzero;"/>
        </g>
        <g transform="matrix(1,0,0,1,781.124,27.9249)">
            <path d="M0,-0.093C0.693,-0.093 1.245,-0.259 1.655,-0.59C2.065,-0.922 2.271,-1.371 2.271,-1.94L2.271,-1.971C2.271,-2.571 2.07,-3.026 1.671,-3.337C1.271,-3.647 0.709,-3.802 -0.016,-3.802L-2.837,-3.802L-2.837,-0.093L0,-0.093ZM-4.755,-5.547L0.148,-5.547C0.84,-5.547 1.453,-5.449 1.987,-5.256C2.521,-5.062 2.967,-4.792 3.323,-4.447C3.616,-4.142 3.842,-3.791 3.999,-3.393C4.156,-2.995 4.234,-2.555 4.234,-2.073L4.234,-2.042C4.234,-1.591 4.169,-1.185 4.038,-0.824C3.907,-0.463 3.727,-0.143 3.496,0.135C3.266,0.412 2.99,0.648 2.671,0.842C2.352,1.036 1.998,1.185 1.61,1.29L4.58,5.454L2.302,5.454L-0.41,1.62L-0.441,1.62L-2.837,1.62L-2.837,5.454L-4.755,5.454L-4.755,-5.547Z" style="fill:rgb(42,82,104);fill-rule:nonzero;"/>
        </g>
    </g>
</svg>
