<svg width="157" height="85" viewBox="0 0 157 85" fill="none" xmlns="http://www.w3.org/2000/svg">
<path fill-rule="evenodd" clip-rule="evenodd" d="M2.25777 83.9029C1.06937 83.9029 -6.10352e-05 82.8285 -6.10352e-05 81.6348V2.6079C-6.10352e-05 1.41416 1.06937 0.33976 2.25777 0.33976H12.3582C13.5466 0.33976 14.616 1.41416 14.616 2.6079V54.2978L30.189 37.5851C31.0208 36.8687 31.8527 36.1526 33.1597 36.1526H43.9733C45.9935 36.1526 46.7064 38.3014 45.5183 39.6145L27.8126 57.7593L48.9642 80.5604C50.1526 81.8735 49.4394 83.9029 47.4195 83.9029H34.5857C33.8729 83.9029 32.9221 83.4256 32.5658 82.9475L14.616 61.4602V81.6348C14.616 82.8285 13.5466 83.9029 12.3582 83.9029H2.25777ZM72.0927 19.476C72.0927 24.0127 68.4088 27.7132 63.7745 27.7132C59.2589 27.7132 55.694 24.0127 55.694 19.476C55.694 14.9401 59.2589 11.2392 63.7745 11.2392C68.4088 11.2392 72.0927 14.9401 72.0927 19.476ZM82.7676 81.7905C82.7676 82.9842 83.837 84.0586 85.0258 84.0586H93.8192C96.0767 84.0586 96.7898 83.4616 96.7898 81.7905V55.5279C97.9779 52.3043 101.781 48.0071 107.96 48.0071C113.664 48.0071 116.872 51.9467 116.872 58.1537V81.7905C116.872 82.9842 117.822 84.0586 119.13 84.0586H128.874C130.062 84.0586 131.132 82.9842 131.132 81.7905V58.8704C131.132 46.455 125.071 35.1146 109.98 35.1146C100.83 35.1146 95.0072 40.2476 93.225 42.1577L91.561 37.7408C91.2047 36.9051 90.6105 36.3084 89.5411 36.3084H85.0258C83.837 36.3084 82.7676 37.2634 82.7676 38.5762V81.7905ZM56.7274 81.6348C56.7274 82.8285 57.7968 83.9029 58.9852 83.9029H68.848C70.0364 83.9029 71.1059 82.8285 71.1059 81.6348V38.4208C71.1059 37.1077 70.0364 36.1526 68.848 36.1526H58.9852C57.7968 36.1526 56.7274 37.1077 56.7274 38.4208V81.6348ZM147.163 84.806C151.798 84.806 155.481 81.1051 155.481 76.5688C155.481 72.0329 151.798 68.332 147.163 68.332C142.648 68.332 139.083 72.0329 139.083 76.5688C139.083 81.1051 142.648 84.806 147.163 84.806Z" fill="#FBC02D"/>
</svg>
